<mxfile host="65bd71144e" pages="2">
    <diagram id="bAoGr5uJ1YmNeTvzPpZj" name="latest version">
        <mxGraphModel dx="1831" dy="810" grid="1" gridSize="10" guides="1" tooltips="1" connect="1" arrows="1" fold="1" page="1" pageScale="1" pageWidth="850" pageHeight="1100" math="0" shadow="0">
            <root>
                <mxCell id="0"/>
                <mxCell id="1" parent="0"/>
                <mxCell id="dKrOlkIFahM6OOiq7HOB-1" value="User" style="swimlane;html=1;fontStyle=1;align=center;verticalAlign=top;childLayout=stackLayout;horizontal=1;startSize=26;horizontalStack=0;resizeParent=1;resizeLast=0;collapsible=1;marginBottom=0;swimlaneFillColor=#ffffff;rounded=0;shadow=0;comic=0;labelBackgroundColor=none;strokeWidth=1;fillColor=none;fontFamily=Verdana;fontSize=12" parent="1" vertex="1">
                    <mxGeometry x="-730" y="10" width="270" height="300" as="geometry"/>
                </mxCell>
                <mxCell id="dKrOlkIFahM6OOiq7HOB-2" value="- fullname: String" style="text;html=1;strokeColor=none;fillColor=none;align=left;verticalAlign=top;spacingLeft=4;spacingRight=4;whiteSpace=wrap;overflow=hidden;rotatable=0;points=[[0,0.5],[1,0.5]];portConstraint=eastwest;" parent="dKrOlkIFahM6OOiq7HOB-1" vertex="1">
                    <mxGeometry y="26" width="270" height="26" as="geometry"/>
                </mxCell>
                <mxCell id="dKrOlkIFahM6OOiq7HOB-3" value="- identification: String" style="text;html=1;strokeColor=none;fillColor=none;align=left;verticalAlign=top;spacingLeft=4;spacingRight=4;whiteSpace=wrap;overflow=hidden;rotatable=0;points=[[0,0.5],[1,0.5]];portConstraint=eastwest;" parent="dKrOlkIFahM6OOiq7HOB-1" vertex="1">
                    <mxGeometry y="52" width="270" height="26" as="geometry"/>
                </mxCell>
                <mxCell id="dKrOlkIFahM6OOiq7HOB-4" value="- email: String" style="text;html=1;strokeColor=none;fillColor=none;align=left;verticalAlign=top;spacingLeft=4;spacingRight=4;whiteSpace=wrap;overflow=hidden;rotatable=0;points=[[0,0.5],[1,0.5]];portConstraint=eastwest;" parent="dKrOlkIFahM6OOiq7HOB-1" vertex="1">
                    <mxGeometry y="78" width="270" height="26" as="geometry"/>
                </mxCell>
                <mxCell id="dKrOlkIFahM6OOiq7HOB-5" value="- contact: String" style="text;html=1;strokeColor=none;fillColor=none;align=left;verticalAlign=top;spacingLeft=4;spacingRight=4;whiteSpace=wrap;overflow=hidden;rotatable=0;points=[[0,0.5],[1,0.5]];portConstraint=eastwest;" parent="dKrOlkIFahM6OOiq7HOB-1" vertex="1">
                    <mxGeometry y="104" width="270" height="26" as="geometry"/>
                </mxCell>
                <mxCell id="dKrOlkIFahM6OOiq7HOB-6" value="- username: String&lt;br&gt;" style="text;html=1;strokeColor=none;fillColor=none;align=left;verticalAlign=top;spacingLeft=4;spacingRight=4;whiteSpace=wrap;overflow=hidden;rotatable=0;points=[[0,0.5],[1,0.5]];portConstraint=eastwest;" parent="dKrOlkIFahM6OOiq7HOB-1" vertex="1">
                    <mxGeometry y="130" width="270" height="26" as="geometry"/>
                </mxCell>
                <mxCell id="dKrOlkIFahM6OOiq7HOB-59" value="- password: String" style="text;html=1;strokeColor=none;fillColor=none;align=left;verticalAlign=top;spacingLeft=4;spacingRight=4;whiteSpace=wrap;overflow=hidden;rotatable=0;points=[[0,0.5],[1,0.5]];portConstraint=eastwest;" parent="dKrOlkIFahM6OOiq7HOB-1" vertex="1">
                    <mxGeometry y="156" width="270" height="26" as="geometry"/>
                </mxCell>
                <mxCell id="dKrOlkIFahM6OOiq7HOB-61" value="_ passwordEncryptor: BasicPassword Encryptor" style="text;html=1;strokeColor=none;fillColor=none;align=left;verticalAlign=top;spacingLeft=4;spacingRight=4;whiteSpace=wrap;overflow=hidden;rotatable=0;points=[[0,0.5],[1,0.5]];portConstraint=eastwest;" parent="dKrOlkIFahM6OOiq7HOB-1" vertex="1">
                    <mxGeometry y="182" width="270" height="28" as="geometry"/>
                </mxCell>
                <mxCell id="dKrOlkIFahM6OOiq7HOB-62" value="_ formatter: DateTimeFormatter" style="text;html=1;strokeColor=none;fillColor=none;align=left;verticalAlign=top;spacingLeft=4;spacingRight=4;whiteSpace=wrap;overflow=hidden;rotatable=0;points=[[0,0.5],[1,0.5]];portConstraint=eastwest;" parent="dKrOlkIFahM6OOiq7HOB-1" vertex="1">
                    <mxGeometry y="210" width="270" height="26" as="geometry"/>
                </mxCell>
                <mxCell id="dKrOlkIFahM6OOiq7HOB-7" value="" style="line;html=1;strokeWidth=1;fillColor=none;align=left;verticalAlign=middle;spacingTop=-1;spacingLeft=3;spacingRight=3;rotatable=0;labelPosition=right;points=[];portConstraint=eastwest;" parent="dKrOlkIFahM6OOiq7HOB-1" vertex="1">
                    <mxGeometry y="236" width="270" height="8" as="geometry"/>
                </mxCell>
                <mxCell id="dKrOlkIFahM6OOiq7HOB-71" value="+ login(User user, String password): boolean" style="text;html=1;strokeColor=none;fillColor=none;align=left;verticalAlign=top;spacingLeft=4;spacingRight=4;whiteSpace=wrap;overflow=hidden;rotatable=0;points=[[0,0.5],[1,0.5]];portConstraint=eastwest;" parent="dKrOlkIFahM6OOiq7HOB-1" vertex="1">
                    <mxGeometry y="244" width="270" height="26" as="geometry"/>
                </mxCell>
                <mxCell id="dKrOlkIFahM6OOiq7HOB-72" value="+ toString(): String" style="text;html=1;strokeColor=none;fillColor=none;align=left;verticalAlign=top;spacingLeft=4;spacingRight=4;whiteSpace=wrap;overflow=hidden;rotatable=0;points=[[0,0.5],[1,0.5]];portConstraint=eastwest;" parent="dKrOlkIFahM6OOiq7HOB-1" vertex="1">
                    <mxGeometry y="270" width="270" height="26" as="geometry"/>
                </mxCell>
                <mxCell id="dKrOlkIFahM6OOiq7HOB-14" value="Car" style="swimlane;html=1;fontStyle=1;align=center;verticalAlign=top;childLayout=stackLayout;horizontal=1;startSize=26;horizontalStack=0;resizeParent=1;resizeLast=0;collapsible=1;marginBottom=0;swimlaneFillColor=#ffffff;rounded=0;shadow=0;comic=0;labelBackgroundColor=none;strokeWidth=1;fillColor=none;fontFamily=Verdana;fontSize=12" parent="1" vertex="1">
                    <mxGeometry x="440" y="480" width="305" height="370" as="geometry">
                        <mxRectangle x="430" y="83" width="70" height="30" as="alternateBounds"/>
                    </mxGeometry>
                </mxCell>
                <mxCell id="dKrOlkIFahM6OOiq7HOB-15" value="- plateNumber: String" style="text;html=1;strokeColor=none;fillColor=none;align=left;verticalAlign=top;spacingLeft=4;spacingRight=4;whiteSpace=wrap;overflow=hidden;rotatable=0;points=[[0,0.5],[1,0.5]];portConstraint=eastwest;" parent="dKrOlkIFahM6OOiq7HOB-14" vertex="1">
                    <mxGeometry y="26" width="305" height="26" as="geometry"/>
                </mxCell>
                <mxCell id="dKrOlkIFahM6OOiq7HOB-16" value="- carBrand: String" style="text;html=1;strokeColor=none;fillColor=none;align=left;verticalAlign=top;spacingLeft=4;spacingRight=4;whiteSpace=wrap;overflow=hidden;rotatable=0;points=[[0,0.5],[1,0.5]];portConstraint=eastwest;" parent="dKrOlkIFahM6OOiq7HOB-14" vertex="1">
                    <mxGeometry y="52" width="305" height="26" as="geometry"/>
                </mxCell>
                <mxCell id="dKrOlkIFahM6OOiq7HOB-17" value="- carType: String" style="text;html=1;strokeColor=none;fillColor=none;align=left;verticalAlign=top;spacingLeft=4;spacingRight=4;whiteSpace=wrap;overflow=hidden;rotatable=0;points=[[0,0.5],[1,0.5]];portConstraint=eastwest;" parent="dKrOlkIFahM6OOiq7HOB-14" vertex="1">
                    <mxGeometry y="78" width="305" height="26" as="geometry"/>
                </mxCell>
                <mxCell id="dKrOlkIFahM6OOiq7HOB-18" value="- carSeat: Integer" style="text;html=1;strokeColor=none;fillColor=none;align=left;verticalAlign=top;spacingLeft=4;spacingRight=4;whiteSpace=wrap;overflow=hidden;rotatable=0;points=[[0,0.5],[1,0.5]];portConstraint=eastwest;" parent="dKrOlkIFahM6OOiq7HOB-14" vertex="1">
                    <mxGeometry y="104" width="305" height="26" as="geometry"/>
                </mxCell>
                <mxCell id="dKrOlkIFahM6OOiq7HOB-19" value="- carPrice: Integer" style="text;html=1;strokeColor=none;fillColor=none;align=left;verticalAlign=top;spacingLeft=4;spacingRight=4;whiteSpace=wrap;overflow=hidden;rotatable=0;points=[[0,0.5],[1,0.5]];portConstraint=eastwest;" parent="dKrOlkIFahM6OOiq7HOB-14" vertex="1">
                    <mxGeometry y="130" width="305" height="26" as="geometry"/>
                </mxCell>
                <mxCell id="dKrOlkIFahM6OOiq7HOB-20" value="- bookedDates: ArrayList&amp;lt;LocalDate&amp;gt;" style="text;html=1;strokeColor=none;fillColor=none;align=left;verticalAlign=top;spacingLeft=4;spacingRight=4;whiteSpace=wrap;overflow=hidden;rotatable=0;points=[[0,0.5],[1,0.5]];portConstraint=eastwest;" parent="dKrOlkIFahM6OOiq7HOB-14" vertex="1">
                    <mxGeometry y="156" width="305" height="24" as="geometry"/>
                </mxCell>
                <mxCell id="dKrOlkIFahM6OOiq7HOB-127" value="_ dateFormatter: DateTimeFormatter" style="text;html=1;strokeColor=none;fillColor=none;align=left;verticalAlign=top;spacingLeft=4;spacingRight=4;whiteSpace=wrap;overflow=hidden;rotatable=0;points=[[0,0.5],[1,0.5]];portConstraint=eastwest;" parent="dKrOlkIFahM6OOiq7HOB-14" vertex="1">
                    <mxGeometry y="180" width="305" height="26" as="geometry"/>
                </mxCell>
                <mxCell id="dKrOlkIFahM6OOiq7HOB-21" value="" style="line;html=1;strokeWidth=1;fillColor=none;align=left;verticalAlign=middle;spacingTop=-1;spacingLeft=3;spacingRight=3;rotatable=0;labelPosition=right;points=[];portConstraint=eastwest;" parent="dKrOlkIFahM6OOiq7HOB-14" vertex="1">
                    <mxGeometry y="206" width="305" height="8" as="geometry"/>
                </mxCell>
                <mxCell id="dKrOlkIFahM6OOiq7HOB-141" value="+ addDates(LocalDate date): Void" style="text;html=1;strokeColor=none;fillColor=none;align=left;verticalAlign=top;spacingLeft=4;spacingRight=4;whiteSpace=wrap;overflow=hidden;rotatable=0;points=[[0,0.5],[1,0.5]];portConstraint=eastwest;" parent="dKrOlkIFahM6OOiq7HOB-14" vertex="1">
                    <mxGeometry y="214" width="305" height="26" as="geometry"/>
                </mxCell>
                <mxCell id="dKrOlkIFahM6OOiq7HOB-142" value="+ removeDate(ArrayList&amp;lt;LocalDate&amp;gt; datesToBeRemoved): Void" style="text;html=1;strokeColor=none;fillColor=none;align=left;verticalAlign=top;spacingLeft=4;spacingRight=4;whiteSpace=wrap;overflow=hidden;rotatable=0;points=[[0,0.5],[1,0.5]];portConstraint=eastwest;" parent="dKrOlkIFahM6OOiq7HOB-14" vertex="1">
                    <mxGeometry y="240" width="305" height="42" as="geometry"/>
                </mxCell>
                <mxCell id="dKrOlkIFahM6OOiq7HOB-144" value="+ checkAvailability(LocalDate date): boolean" style="text;html=1;strokeColor=none;fillColor=none;align=left;verticalAlign=top;spacingLeft=4;spacingRight=4;whiteSpace=wrap;overflow=hidden;rotatable=0;points=[[0,0.5],[1,0.5]];portConstraint=eastwest;" parent="dKrOlkIFahM6OOiq7HOB-14" vertex="1">
                    <mxGeometry y="282" width="305" height="26" as="geometry"/>
                </mxCell>
                <mxCell id="dKrOlkIFahM6OOiq7HOB-145" value="+ equals(Object o): boolean" style="text;html=1;strokeColor=none;fillColor=none;align=left;verticalAlign=top;spacingLeft=4;spacingRight=4;whiteSpace=wrap;overflow=hidden;rotatable=0;points=[[0,0.5],[1,0.5]];portConstraint=eastwest;" parent="dKrOlkIFahM6OOiq7HOB-14" vertex="1">
                    <mxGeometry y="308" width="305" height="26" as="geometry"/>
                </mxCell>
                <mxCell id="dKrOlkIFahM6OOiq7HOB-146" value="+ hashCode(): Integer" style="text;html=1;strokeColor=none;fillColor=none;align=left;verticalAlign=top;spacingLeft=4;spacingRight=4;whiteSpace=wrap;overflow=hidden;rotatable=0;points=[[0,0.5],[1,0.5]];portConstraint=eastwest;" parent="dKrOlkIFahM6OOiq7HOB-14" vertex="1">
                    <mxGeometry y="334" width="305" height="26" as="geometry"/>
                </mxCell>
                <mxCell id="dKrOlkIFahM6OOiq7HOB-25" value="Customer" style="swimlane;html=1;fontStyle=1;align=center;verticalAlign=top;childLayout=stackLayout;horizontal=1;startSize=26;horizontalStack=0;resizeParent=1;resizeLast=0;collapsible=1;marginBottom=0;swimlaneFillColor=#ffffff;rounded=0;shadow=0;comic=0;labelBackgroundColor=none;strokeWidth=1;fillColor=none;fontFamily=Verdana;fontSize=12" parent="1" vertex="1">
                    <mxGeometry x="-10" y="200" width="300" height="262" as="geometry"/>
                </mxCell>
                <mxCell id="dKrOlkIFahM6OOiq7HOB-147" value="- fullname: String" style="text;html=1;strokeColor=none;fillColor=none;align=left;verticalAlign=top;spacingLeft=4;spacingRight=4;whiteSpace=wrap;overflow=hidden;rotatable=0;points=[[0,0.5],[1,0.5]];portConstraint=eastwest;" parent="dKrOlkIFahM6OOiq7HOB-25" vertex="1">
                    <mxGeometry y="26" width="300" height="26" as="geometry"/>
                </mxCell>
                <mxCell id="dKrOlkIFahM6OOiq7HOB-152" value="- password: String" style="text;html=1;strokeColor=none;fillColor=none;align=left;verticalAlign=top;spacingLeft=4;spacingRight=4;whiteSpace=wrap;overflow=hidden;rotatable=0;points=[[0,0.5],[1,0.5]];portConstraint=eastwest;" parent="dKrOlkIFahM6OOiq7HOB-25" vertex="1">
                    <mxGeometry y="52" width="300" height="26" as="geometry"/>
                </mxCell>
                <mxCell id="dKrOlkIFahM6OOiq7HOB-151" value="- username: String&lt;br&gt;" style="text;html=1;strokeColor=none;fillColor=none;align=left;verticalAlign=top;spacingLeft=4;spacingRight=4;whiteSpace=wrap;overflow=hidden;rotatable=0;points=[[0,0.5],[1,0.5]];portConstraint=eastwest;" parent="dKrOlkIFahM6OOiq7HOB-25" vertex="1">
                    <mxGeometry y="78" width="300" height="26" as="geometry"/>
                </mxCell>
                <mxCell id="dKrOlkIFahM6OOiq7HOB-150" value="- contact: String" style="text;html=1;strokeColor=none;fillColor=none;align=left;verticalAlign=top;spacingLeft=4;spacingRight=4;whiteSpace=wrap;overflow=hidden;rotatable=0;points=[[0,0.5],[1,0.5]];portConstraint=eastwest;" parent="dKrOlkIFahM6OOiq7HOB-25" vertex="1">
                    <mxGeometry y="104" width="300" height="26" as="geometry"/>
                </mxCell>
                <mxCell id="dKrOlkIFahM6OOiq7HOB-149" value="- email: String" style="text;html=1;strokeColor=none;fillColor=none;align=left;verticalAlign=top;spacingLeft=4;spacingRight=4;whiteSpace=wrap;overflow=hidden;rotatable=0;points=[[0,0.5],[1,0.5]];portConstraint=eastwest;" parent="dKrOlkIFahM6OOiq7HOB-25" vertex="1">
                    <mxGeometry y="130" width="300" height="26" as="geometry"/>
                </mxCell>
                <mxCell id="dKrOlkIFahM6OOiq7HOB-148" value="- identification: String" style="text;html=1;strokeColor=none;fillColor=none;align=left;verticalAlign=top;spacingLeft=4;spacingRight=4;whiteSpace=wrap;overflow=hidden;rotatable=0;points=[[0,0.5],[1,0.5]];portConstraint=eastwest;" parent="dKrOlkIFahM6OOiq7HOB-25" vertex="1">
                    <mxGeometry y="156" width="300" height="26" as="geometry"/>
                </mxCell>
                <mxCell id="dKrOlkIFahM6OOiq7HOB-30" value="" style="line;html=1;strokeWidth=1;fillColor=none;align=left;verticalAlign=middle;spacingTop=-1;spacingLeft=3;spacingRight=3;rotatable=0;labelPosition=right;points=[];portConstraint=eastwest;" parent="dKrOlkIFahM6OOiq7HOB-25" vertex="1">
                    <mxGeometry y="182" width="300" height="10" as="geometry"/>
                </mxCell>
                <mxCell id="dKrOlkIFahM6OOiq7HOB-156" value="+ bookCar(Car car, LocalDate bookingStart, LocalDate bookingEnd): Booking" style="text;html=1;strokeColor=none;fillColor=none;align=left;verticalAlign=top;spacingLeft=4;spacingRight=4;whiteSpace=wrap;overflow=hidden;rotatable=0;points=[[0,0.5],[1,0.5]];portConstraint=eastwest;" parent="dKrOlkIFahM6OOiq7HOB-25" vertex="1">
                    <mxGeometry y="192" width="300" height="40" as="geometry"/>
                </mxCell>
                <mxCell id="dKrOlkIFahM6OOiq7HOB-157" value="+ returnCar(Booking booking): Booking" style="text;html=1;strokeColor=none;fillColor=none;align=left;verticalAlign=top;spacingLeft=4;spacingRight=4;whiteSpace=wrap;overflow=hidden;rotatable=0;points=[[0,0.5],[1,0.5]];portConstraint=eastwest;" parent="dKrOlkIFahM6OOiq7HOB-25" vertex="1">
                    <mxGeometry y="232" width="300" height="30" as="geometry"/>
                </mxCell>
                <mxCell id="dKrOlkIFahM6OOiq7HOB-39" value="Admin" style="swimlane;html=1;fontStyle=1;align=center;verticalAlign=top;childLayout=stackLayout;horizontal=1;startSize=26;horizontalStack=0;resizeParent=1;resizeLast=0;collapsible=1;marginBottom=0;swimlaneFillColor=#ffffff;rounded=0;shadow=0;comic=0;labelBackgroundColor=none;strokeWidth=1;fillColor=none;fontFamily=Verdana;fontSize=12" parent="1" vertex="1">
                    <mxGeometry x="-370" y="200" width="310" height="340" as="geometry"/>
                </mxCell>
                <mxCell id="dKrOlkIFahM6OOiq7HOB-73" value="- fullname: String" style="text;html=1;strokeColor=none;fillColor=none;align=left;verticalAlign=top;spacingLeft=4;spacingRight=4;whiteSpace=wrap;overflow=hidden;rotatable=0;points=[[0,0.5],[1,0.5]];portConstraint=eastwest;" parent="dKrOlkIFahM6OOiq7HOB-39" vertex="1">
                    <mxGeometry y="26" width="310" height="26" as="geometry"/>
                </mxCell>
                <mxCell id="dKrOlkIFahM6OOiq7HOB-74" value="- identification: String" style="text;html=1;strokeColor=none;fillColor=none;align=left;verticalAlign=top;spacingLeft=4;spacingRight=4;whiteSpace=wrap;overflow=hidden;rotatable=0;points=[[0,0.5],[1,0.5]];portConstraint=eastwest;" parent="dKrOlkIFahM6OOiq7HOB-39" vertex="1">
                    <mxGeometry y="52" width="310" height="26" as="geometry"/>
                </mxCell>
                <mxCell id="dKrOlkIFahM6OOiq7HOB-75" value="- email: String" style="text;html=1;strokeColor=none;fillColor=none;align=left;verticalAlign=top;spacingLeft=4;spacingRight=4;whiteSpace=wrap;overflow=hidden;rotatable=0;points=[[0,0.5],[1,0.5]];portConstraint=eastwest;" parent="dKrOlkIFahM6OOiq7HOB-39" vertex="1">
                    <mxGeometry y="78" width="310" height="26" as="geometry"/>
                </mxCell>
                <mxCell id="dKrOlkIFahM6OOiq7HOB-41" value="- name: String" style="text;html=1;strokeColor=none;fillColor=none;align=left;verticalAlign=top;spacingLeft=4;spacingRight=4;whiteSpace=wrap;overflow=hidden;rotatable=0;points=[[0,0.5],[1,0.5]];portConstraint=eastwest;" parent="dKrOlkIFahM6OOiq7HOB-39" vertex="1">
                    <mxGeometry y="104" width="310" height="26" as="geometry"/>
                </mxCell>
                <mxCell id="dKrOlkIFahM6OOiq7HOB-76" value="- contact: String" style="text;html=1;strokeColor=none;fillColor=none;align=left;verticalAlign=top;spacingLeft=4;spacingRight=4;whiteSpace=wrap;overflow=hidden;rotatable=0;points=[[0,0.5],[1,0.5]];portConstraint=eastwest;" parent="dKrOlkIFahM6OOiq7HOB-39" vertex="1">
                    <mxGeometry y="130" width="310" height="26" as="geometry"/>
                </mxCell>
                <mxCell id="dKrOlkIFahM6OOiq7HOB-78" value="- password: String" style="text;html=1;strokeColor=none;fillColor=none;align=left;verticalAlign=top;spacingLeft=4;spacingRight=4;whiteSpace=wrap;overflow=hidden;rotatable=0;points=[[0,0.5],[1,0.5]];portConstraint=eastwest;" parent="dKrOlkIFahM6OOiq7HOB-39" vertex="1">
                    <mxGeometry y="156" width="310" height="26" as="geometry"/>
                </mxCell>
                <mxCell id="dKrOlkIFahM6OOiq7HOB-77" value="- username: String&lt;br&gt;" style="text;html=1;strokeColor=none;fillColor=none;align=left;verticalAlign=top;spacingLeft=4;spacingRight=4;whiteSpace=wrap;overflow=hidden;rotatable=0;points=[[0,0.5],[1,0.5]];portConstraint=eastwest;" parent="dKrOlkIFahM6OOiq7HOB-39" vertex="1">
                    <mxGeometry y="182" width="310" height="26" as="geometry"/>
                </mxCell>
                <mxCell id="dKrOlkIFahM6OOiq7HOB-46" value="" style="line;html=1;strokeWidth=1;fillColor=none;align=left;verticalAlign=middle;spacingTop=-1;spacingLeft=3;spacingRight=3;rotatable=0;labelPosition=right;points=[];portConstraint=eastwest;" parent="dKrOlkIFahM6OOiq7HOB-39" vertex="1">
                    <mxGeometry y="208" width="310" height="8" as="geometry"/>
                </mxCell>
                <mxCell id="dKrOlkIFahM6OOiq7HOB-47" value="+ imposeOvertimeCharges(Booking booking): Integer" style="text;html=1;strokeColor=none;fillColor=none;align=left;verticalAlign=top;spacingLeft=4;spacingRight=4;whiteSpace=wrap;overflow=hidden;rotatable=0;points=[[0,0.5],[1,0.5]];portConstraint=eastwest;" parent="dKrOlkIFahM6OOiq7HOB-39" vertex="1">
                    <mxGeometry y="216" width="310" height="26" as="geometry"/>
                </mxCell>
                <mxCell id="dKrOlkIFahM6OOiq7HOB-48" value="+ approve(Booking booking, boolean approval): Booking" style="text;html=1;strokeColor=none;fillColor=none;align=left;verticalAlign=top;spacingLeft=4;spacingRight=4;whiteSpace=wrap;overflow=hidden;rotatable=0;points=[[0,0.5],[1,0.5]];portConstraint=eastwest;" parent="dKrOlkIFahM6OOiq7HOB-39" vertex="1">
                    <mxGeometry y="242" width="310" height="26" as="geometry"/>
                </mxCell>
                <mxCell id="dKrOlkIFahM6OOiq7HOB-49" value="+ ImposeFines(Booking booking): Integer" style="text;html=1;strokeColor=none;fillColor=none;align=left;verticalAlign=top;spacingLeft=4;spacingRight=4;whiteSpace=wrap;overflow=hidden;rotatable=0;points=[[0,0.5],[1,0.5]];portConstraint=eastwest;" parent="dKrOlkIFahM6OOiq7HOB-39" vertex="1">
                    <mxGeometry y="268" width="310" height="26" as="geometry"/>
                </mxCell>
                <mxCell id="dKrOlkIFahM6OOiq7HOB-50" value="+ approveReturn(Booking booking, boolean approval): Booking" style="text;html=1;strokeColor=none;fillColor=none;align=left;verticalAlign=top;spacingLeft=4;spacingRight=4;whiteSpace=wrap;overflow=hidden;rotatable=0;points=[[0,0.5],[1,0.5]];portConstraint=eastwest;" parent="dKrOlkIFahM6OOiq7HOB-39" vertex="1">
                    <mxGeometry y="294" width="310" height="40" as="geometry"/>
                </mxCell>
                <mxCell id="dKrOlkIFahM6OOiq7HOB-81" value="Booking" style="swimlane;html=1;fontStyle=1;align=center;verticalAlign=top;childLayout=stackLayout;horizontal=1;startSize=26;horizontalStack=0;resizeParent=1;resizeLast=0;collapsible=1;marginBottom=0;swimlaneFillColor=#ffffff;rounded=0;shadow=0;comic=0;labelBackgroundColor=none;strokeWidth=1;fillColor=none;fontFamily=Verdana;fontSize=12" parent="1" vertex="1">
                    <mxGeometry x="30" y="810" width="310" height="500" as="geometry"/>
                </mxCell>
                <mxCell id="dKrOlkIFahM6OOiq7HOB-82" value="- bookingType: String" style="text;html=1;strokeColor=none;fillColor=none;align=left;verticalAlign=top;spacingLeft=4;spacingRight=4;whiteSpace=wrap;overflow=hidden;rotatable=0;points=[[0,0.5],[1,0.5]];portConstraint=eastwest;" parent="dKrOlkIFahM6OOiq7HOB-81" vertex="1">
                    <mxGeometry y="26" width="310" height="26" as="geometry"/>
                </mxCell>
                <mxCell id="dKrOlkIFahM6OOiq7HOB-83" value="- bookingStatus: String" style="text;html=1;strokeColor=none;fillColor=none;align=left;verticalAlign=top;spacingLeft=4;spacingRight=4;whiteSpace=wrap;overflow=hidden;rotatable=0;points=[[0,0.5],[1,0.5]];portConstraint=eastwest;" parent="dKrOlkIFahM6OOiq7HOB-81" vertex="1">
                    <mxGeometry y="52" width="310" height="26" as="geometry"/>
                </mxCell>
                <mxCell id="dKrOlkIFahM6OOiq7HOB-84" value="- email: String" style="text;html=1;strokeColor=none;fillColor=none;align=left;verticalAlign=top;spacingLeft=4;spacingRight=4;whiteSpace=wrap;overflow=hidden;rotatable=0;points=[[0,0.5],[1,0.5]];portConstraint=eastwest;" parent="dKrOlkIFahM6OOiq7HOB-81" vertex="1">
                    <mxGeometry y="78" width="310" height="26" as="geometry"/>
                </mxCell>
                <mxCell id="dKrOlkIFahM6OOiq7HOB-85" value="- identification: String" style="text;html=1;strokeColor=none;fillColor=none;align=left;verticalAlign=top;spacingLeft=4;spacingRight=4;whiteSpace=wrap;overflow=hidden;rotatable=0;points=[[0,0.5],[1,0.5]];portConstraint=eastwest;" parent="dKrOlkIFahM6OOiq7HOB-81" vertex="1">
                    <mxGeometry y="104" width="310" height="26" as="geometry"/>
                </mxCell>
                <mxCell id="dKrOlkIFahM6OOiq7HOB-86" value="- plateNumber: String" style="text;html=1;strokeColor=none;fillColor=none;align=left;verticalAlign=top;spacingLeft=4;spacingRight=4;whiteSpace=wrap;overflow=hidden;rotatable=0;points=[[0,0.5],[1,0.5]];portConstraint=eastwest;" parent="dKrOlkIFahM6OOiq7HOB-81" vertex="1">
                    <mxGeometry y="130" width="310" height="26" as="geometry"/>
                </mxCell>
                <mxCell id="dKrOlkIFahM6OOiq7HOB-87" value="- totalPrice: Integer" style="text;html=1;strokeColor=none;fillColor=none;align=left;verticalAlign=top;spacingLeft=4;spacingRight=4;whiteSpace=wrap;overflow=hidden;rotatable=0;points=[[0,0.5],[1,0.5]];portConstraint=eastwest;" parent="dKrOlkIFahM6OOiq7HOB-81" vertex="1">
                    <mxGeometry y="156" width="310" height="26" as="geometry"/>
                </mxCell>
                <mxCell id="dKrOlkIFahM6OOiq7HOB-88" value="- totalRent: Integer" style="text;html=1;strokeColor=none;fillColor=none;align=left;verticalAlign=top;spacingLeft=4;spacingRight=4;whiteSpace=wrap;overflow=hidden;rotatable=0;points=[[0,0.5],[1,0.5]];portConstraint=eastwest;" parent="dKrOlkIFahM6OOiq7HOB-81" vertex="1">
                    <mxGeometry y="182" width="310" height="26" as="geometry"/>
                </mxCell>
                <mxCell id="dKrOlkIFahM6OOiq7HOB-96" value="- totalFines: Integer" style="text;html=1;strokeColor=none;fillColor=none;align=left;verticalAlign=top;spacingLeft=4;spacingRight=4;whiteSpace=wrap;overflow=hidden;rotatable=0;points=[[0,0.5],[1,0.5]];portConstraint=eastwest;" parent="dKrOlkIFahM6OOiq7HOB-81" vertex="1">
                    <mxGeometry y="208" width="310" height="26" as="geometry"/>
                </mxCell>
                <mxCell id="dKrOlkIFahM6OOiq7HOB-97" value="- bookingPeriod: Integer" style="text;html=1;strokeColor=none;fillColor=none;align=left;verticalAlign=top;spacingLeft=4;spacingRight=4;whiteSpace=wrap;overflow=hidden;rotatable=0;points=[[0,0.5],[1,0.5]];portConstraint=eastwest;" parent="dKrOlkIFahM6OOiq7HOB-81" vertex="1">
                    <mxGeometry y="234" width="310" height="26" as="geometry"/>
                </mxCell>
                <mxCell id="dKrOlkIFahM6OOiq7HOB-98" value="- bookingStart: LocalDate" style="text;html=1;strokeColor=none;fillColor=none;align=left;verticalAlign=top;spacingLeft=4;spacingRight=4;whiteSpace=wrap;overflow=hidden;rotatable=0;points=[[0,0.5],[1,0.5]];portConstraint=eastwest;" parent="dKrOlkIFahM6OOiq7HOB-81" vertex="1">
                    <mxGeometry y="260" width="310" height="26" as="geometry"/>
                </mxCell>
                <mxCell id="dKrOlkIFahM6OOiq7HOB-99" value="- bookingEnd: LocalDate" style="text;html=1;strokeColor=none;fillColor=none;align=left;verticalAlign=top;spacingLeft=4;spacingRight=4;whiteSpace=wrap;overflow=hidden;rotatable=0;points=[[0,0.5],[1,0.5]];portConstraint=eastwest;" parent="dKrOlkIFahM6OOiq7HOB-81" vertex="1">
                    <mxGeometry y="286" width="310" height="26" as="geometry"/>
                </mxCell>
                <mxCell id="dKrOlkIFahM6OOiq7HOB-100" value="_ dateFormatter: DateTimeFormatter" style="text;html=1;strokeColor=none;fillColor=none;align=left;verticalAlign=top;spacingLeft=4;spacingRight=4;whiteSpace=wrap;overflow=hidden;rotatable=0;points=[[0,0.5],[1,0.5]];portConstraint=eastwest;" parent="dKrOlkIFahM6OOiq7HOB-81" vertex="1">
                    <mxGeometry y="312" width="310" height="26" as="geometry"/>
                </mxCell>
                <mxCell id="dKrOlkIFahM6OOiq7HOB-101" value="_ carFile: File" style="text;html=1;strokeColor=none;fillColor=none;align=left;verticalAlign=top;spacingLeft=4;spacingRight=4;whiteSpace=wrap;overflow=hidden;rotatable=0;points=[[0,0.5],[1,0.5]];portConstraint=eastwest;" parent="dKrOlkIFahM6OOiq7HOB-81" vertex="1">
                    <mxGeometry y="338" width="310" height="26" as="geometry"/>
                </mxCell>
                <mxCell id="dKrOlkIFahM6OOiq7HOB-89" value="" style="line;html=1;strokeWidth=1;fillColor=none;align=left;verticalAlign=middle;spacingTop=-1;spacingLeft=3;spacingRight=3;rotatable=0;labelPosition=right;points=[];portConstraint=eastwest;" parent="dKrOlkIFahM6OOiq7HOB-81" vertex="1">
                    <mxGeometry y="364" width="310" height="8" as="geometry"/>
                </mxCell>
                <mxCell id="dKrOlkIFahM6OOiq7HOB-103" value="+_ readCarFile(File file): Car[]" style="text;html=1;strokeColor=none;fillColor=none;align=left;verticalAlign=top;spacingLeft=4;spacingRight=4;whiteSpace=wrap;overflow=hidden;rotatable=0;points=[[0,0.5],[1,0.5]];portConstraint=eastwest;" parent="dKrOlkIFahM6OOiq7HOB-81" vertex="1">
                    <mxGeometry y="372" width="310" height="30" as="geometry"/>
                </mxCell>
                <mxCell id="dKrOlkIFahM6OOiq7HOB-124" value="+ equals(Object o): boolean" style="text;html=1;strokeColor=none;fillColor=none;align=left;verticalAlign=top;spacingLeft=4;spacingRight=4;whiteSpace=wrap;overflow=hidden;rotatable=0;points=[[0,0.5],[1,0.5]];portConstraint=eastwest;" parent="dKrOlkIFahM6OOiq7HOB-81" vertex="1">
                    <mxGeometry y="402" width="310" height="30" as="geometry"/>
                </mxCell>
                <mxCell id="dKrOlkIFahM6OOiq7HOB-125" value="+ hashCode(): Integer" style="text;html=1;strokeColor=none;fillColor=none;align=left;verticalAlign=top;spacingLeft=4;spacingRight=4;whiteSpace=wrap;overflow=hidden;rotatable=0;points=[[0,0.5],[1,0.5]];portConstraint=eastwest;" parent="dKrOlkIFahM6OOiq7HOB-81" vertex="1">
                    <mxGeometry y="432" width="310" height="30" as="geometry"/>
                </mxCell>
                <mxCell id="dKrOlkIFahM6OOiq7HOB-126" value="+ toString(): String" style="text;html=1;strokeColor=none;fillColor=none;align=left;verticalAlign=top;spacingLeft=4;spacingRight=4;whiteSpace=wrap;overflow=hidden;rotatable=0;points=[[0,0.5],[1,0.5]];portConstraint=eastwest;" parent="dKrOlkIFahM6OOiq7HOB-81" vertex="1">
                    <mxGeometry y="462" width="310" height="30" as="geometry"/>
                </mxCell>
                <mxCell id="dKrOlkIFahM6OOiq7HOB-158" value="Log" style="swimlane;html=1;fontStyle=1;align=center;verticalAlign=top;childLayout=stackLayout;horizontal=1;startSize=26;horizontalStack=0;resizeParent=1;resizeLast=0;collapsible=1;marginBottom=0;swimlaneFillColor=#ffffff;rounded=0;shadow=0;comic=0;labelBackgroundColor=none;strokeWidth=1;fillColor=none;fontFamily=Verdana;fontSize=12" parent="1" vertex="1">
                    <mxGeometry x="-740" y="850" width="300" height="150" as="geometry"/>
                </mxCell>
                <mxCell id="dKrOlkIFahM6OOiq7HOB-159" value="- timestamp: Timestamp" style="text;html=1;strokeColor=none;fillColor=none;align=left;verticalAlign=top;spacingLeft=4;spacingRight=4;whiteSpace=wrap;overflow=hidden;rotatable=0;points=[[0,0.5],[1,0.5]];portConstraint=eastwest;" parent="dKrOlkIFahM6OOiq7HOB-158" vertex="1">
                    <mxGeometry y="26" width="300" height="26" as="geometry"/>
                </mxCell>
                <mxCell id="dKrOlkIFahM6OOiq7HOB-160" value="- userEmail: String" style="text;html=1;strokeColor=none;fillColor=none;align=left;verticalAlign=top;spacingLeft=4;spacingRight=4;whiteSpace=wrap;overflow=hidden;rotatable=0;points=[[0,0.5],[1,0.5]];portConstraint=eastwest;" parent="dKrOlkIFahM6OOiq7HOB-158" vertex="1">
                    <mxGeometry y="52" width="300" height="26" as="geometry"/>
                </mxCell>
                <mxCell id="dKrOlkIFahM6OOiq7HOB-161" value="- activity: String" style="text;html=1;strokeColor=none;fillColor=none;align=left;verticalAlign=top;spacingLeft=4;spacingRight=4;whiteSpace=wrap;overflow=hidden;rotatable=0;points=[[0,0.5],[1,0.5]];portConstraint=eastwest;" parent="dKrOlkIFahM6OOiq7HOB-158" vertex="1">
                    <mxGeometry y="78" width="300" height="26" as="geometry"/>
                </mxCell>
                <mxCell id="dKrOlkIFahM6OOiq7HOB-165" value="" style="line;html=1;strokeWidth=1;fillColor=none;align=left;verticalAlign=middle;spacingTop=-1;spacingLeft=3;spacingRight=3;rotatable=0;labelPosition=right;points=[];portConstraint=eastwest;" parent="dKrOlkIFahM6OOiq7HOB-158" vertex="1">
                    <mxGeometry y="104" width="300" height="10" as="geometry"/>
                </mxCell>
                <mxCell id="dKrOlkIFahM6OOiq7HOB-166" value="+_ convertToDateUsingInstant(LocalDate date): Date" style="text;html=1;strokeColor=none;fillColor=none;align=left;verticalAlign=top;spacingLeft=4;spacingRight=4;whiteSpace=wrap;overflow=hidden;rotatable=0;points=[[0,0.5],[1,0.5]];portConstraint=eastwest;" parent="dKrOlkIFahM6OOiq7HOB-158" vertex="1">
                    <mxGeometry y="114" width="300" height="26" as="geometry"/>
                </mxCell>
                <mxCell id="dKrOlkIFahM6OOiq7HOB-176" value="Store" style="swimlane;html=1;fontStyle=1;align=center;verticalAlign=top;childLayout=stackLayout;horizontal=1;startSize=26;horizontalStack=0;resizeParent=1;resizeLast=0;collapsible=1;marginBottom=0;swimlaneFillColor=#ffffff;rounded=0;shadow=0;comic=0;labelBackgroundColor=none;strokeWidth=1;fillColor=none;fontFamily=Verdana;fontSize=12" parent="1" vertex="1">
                    <mxGeometry x="-340" y="750" width="310" height="1060" as="geometry"/>
                </mxCell>
                <mxCell id="dKrOlkIFahM6OOiq7HOB-177" value="- cars: ArrayList&amp;lt;Car&amp;gt;" style="text;html=1;strokeColor=none;fillColor=none;align=left;verticalAlign=top;spacingLeft=4;spacingRight=4;whiteSpace=wrap;overflow=hidden;rotatable=0;points=[[0,0.5],[1,0.5]];portConstraint=eastwest;" parent="dKrOlkIFahM6OOiq7HOB-176" vertex="1">
                    <mxGeometry y="26" width="310" height="26" as="geometry"/>
                </mxCell>
                <mxCell id="dKrOlkIFahM6OOiq7HOB-191" value="- admins: ArrayList&amp;lt;User&amp;gt;" style="text;html=1;strokeColor=none;fillColor=none;align=left;verticalAlign=top;spacingLeft=4;spacingRight=4;whiteSpace=wrap;overflow=hidden;rotatable=0;points=[[0,0.5],[1,0.5]];portConstraint=eastwest;" parent="dKrOlkIFahM6OOiq7HOB-176" vertex="1">
                    <mxGeometry y="52" width="310" height="26" as="geometry"/>
                </mxCell>
                <mxCell id="dKrOlkIFahM6OOiq7HOB-192" value="- customers: ArrayList&amp;lt;User&amp;gt;" style="text;html=1;strokeColor=none;fillColor=none;align=left;verticalAlign=top;spacingLeft=4;spacingRight=4;whiteSpace=wrap;overflow=hidden;rotatable=0;points=[[0,0.5],[1,0.5]];portConstraint=eastwest;" parent="dKrOlkIFahM6OOiq7HOB-176" vertex="1">
                    <mxGeometry y="78" width="310" height="26" as="geometry"/>
                </mxCell>
                <mxCell id="dKrOlkIFahM6OOiq7HOB-193" value="- bookings: ArrayList&amp;lt;Booking&amp;gt;" style="text;html=1;strokeColor=none;fillColor=none;align=left;verticalAlign=top;spacingLeft=4;spacingRight=4;whiteSpace=wrap;overflow=hidden;rotatable=0;points=[[0,0.5],[1,0.5]];portConstraint=eastwest;" parent="dKrOlkIFahM6OOiq7HOB-176" vertex="1">
                    <mxGeometry y="104" width="310" height="26" as="geometry"/>
                </mxCell>
                <mxCell id="dKrOlkIFahM6OOiq7HOB-194" value="- logs: ArrayList&amp;lt;Log&amp;gt;" style="text;html=1;strokeColor=none;fillColor=none;align=left;verticalAlign=top;spacingLeft=4;spacingRight=4;whiteSpace=wrap;overflow=hidden;rotatable=0;points=[[0,0.5],[1,0.5]];portConstraint=eastwest;" parent="dKrOlkIFahM6OOiq7HOB-176" vertex="1">
                    <mxGeometry y="130" width="310" height="26" as="geometry"/>
                </mxCell>
                <mxCell id="dKrOlkIFahM6OOiq7HOB-195" value="_ formatter: DateTimeFormatter" style="text;html=1;strokeColor=none;fillColor=none;align=left;verticalAlign=top;spacingLeft=4;spacingRight=4;whiteSpace=wrap;overflow=hidden;rotatable=0;points=[[0,0.5],[1,0.5]];portConstraint=eastwest;" parent="dKrOlkIFahM6OOiq7HOB-176" vertex="1">
                    <mxGeometry y="156" width="310" height="26" as="geometry"/>
                </mxCell>
                <mxCell id="dKrOlkIFahM6OOiq7HOB-196" value="_ adminFile: File" style="text;html=1;strokeColor=none;fillColor=none;align=left;verticalAlign=top;spacingLeft=4;spacingRight=4;whiteSpace=wrap;overflow=hidden;rotatable=0;points=[[0,0.5],[1,0.5]];portConstraint=eastwest;" parent="dKrOlkIFahM6OOiq7HOB-176" vertex="1">
                    <mxGeometry y="182" width="310" height="26" as="geometry"/>
                </mxCell>
                <mxCell id="dKrOlkIFahM6OOiq7HOB-197" value="_ customerFile: File" style="text;html=1;strokeColor=none;fillColor=none;align=left;verticalAlign=top;spacingLeft=4;spacingRight=4;whiteSpace=wrap;overflow=hidden;rotatable=0;points=[[0,0.5],[1,0.5]];portConstraint=eastwest;" parent="dKrOlkIFahM6OOiq7HOB-176" vertex="1">
                    <mxGeometry y="208" width="310" height="26" as="geometry"/>
                </mxCell>
                <mxCell id="dKrOlkIFahM6OOiq7HOB-198" value="_ carFile: File" style="text;html=1;strokeColor=none;fillColor=none;align=left;verticalAlign=top;spacingLeft=4;spacingRight=4;whiteSpace=wrap;overflow=hidden;rotatable=0;points=[[0,0.5],[1,0.5]];portConstraint=eastwest;" parent="dKrOlkIFahM6OOiq7HOB-176" vertex="1">
                    <mxGeometry y="234" width="310" height="26" as="geometry"/>
                </mxCell>
                <mxCell id="dKrOlkIFahM6OOiq7HOB-199" value="_ bookingFile: File" style="text;html=1;strokeColor=none;fillColor=none;align=left;verticalAlign=top;spacingLeft=4;spacingRight=4;whiteSpace=wrap;overflow=hidden;rotatable=0;points=[[0,0.5],[1,0.5]];portConstraint=eastwest;" parent="dKrOlkIFahM6OOiq7HOB-176" vertex="1">
                    <mxGeometry y="260" width="310" height="26" as="geometry"/>
                </mxCell>
                <mxCell id="dKrOlkIFahM6OOiq7HOB-200" value="_ logFile: File" style="text;html=1;strokeColor=none;fillColor=none;align=left;verticalAlign=top;spacingLeft=4;spacingRight=4;whiteSpace=wrap;overflow=hidden;rotatable=0;points=[[0,0.5],[1,0.5]];portConstraint=eastwest;" parent="dKrOlkIFahM6OOiq7HOB-176" vertex="1">
                    <mxGeometry y="286" width="310" height="26" as="geometry"/>
                </mxCell>
                <mxCell id="dKrOlkIFahM6OOiq7HOB-184" value="" style="line;html=1;strokeWidth=1;fillColor=none;align=left;verticalAlign=middle;spacingTop=-1;spacingLeft=3;spacingRight=3;rotatable=0;labelPosition=right;points=[];portConstraint=eastwest;" parent="dKrOlkIFahM6OOiq7HOB-176" vertex="1">
                    <mxGeometry y="312" width="310" height="8" as="geometry"/>
                </mxCell>
                <mxCell id="dKrOlkIFahM6OOiq7HOB-210" value="+_ saveUsers(File file, ArrayList&amp;lt;User&amp;gt; arr): Void" style="text;html=1;strokeColor=none;fillColor=none;align=left;verticalAlign=top;spacingLeft=4;spacingRight=4;whiteSpace=wrap;overflow=hidden;rotatable=0;points=[[0,0.5],[1,0.5]];portConstraint=eastwest;" parent="dKrOlkIFahM6OOiq7HOB-176" vertex="1">
                    <mxGeometry y="320" width="310" height="26" as="geometry"/>
                </mxCell>
                <mxCell id="dKrOlkIFahM6OOiq7HOB-211" value="+_ saveCars(File file, ArrayList&amp;lt;Carr&amp;gt; arr): Void" style="text;html=1;strokeColor=none;fillColor=none;align=left;verticalAlign=top;spacingLeft=4;spacingRight=4;whiteSpace=wrap;overflow=hidden;rotatable=0;points=[[0,0.5],[1,0.5]];portConstraint=eastwest;" parent="dKrOlkIFahM6OOiq7HOB-176" vertex="1">
                    <mxGeometry y="346" width="310" height="26" as="geometry"/>
                </mxCell>
                <mxCell id="dKrOlkIFahM6OOiq7HOB-212" value="+_ saveBookings(File file, ArrayList&amp;lt;Booking&amp;gt; arr): Void" style="text;html=1;strokeColor=none;fillColor=none;align=left;verticalAlign=top;spacingLeft=4;spacingRight=4;whiteSpace=wrap;overflow=hidden;rotatable=0;points=[[0,0.5],[1,0.5]];portConstraint=eastwest;" parent="dKrOlkIFahM6OOiq7HOB-176" vertex="1">
                    <mxGeometry y="372" width="310" height="26" as="geometry"/>
                </mxCell>
                <mxCell id="dKrOlkIFahM6OOiq7HOB-213" value="+_ saveLogs(File file, ArrayList&amp;lt;Log&amp;gt; arr): Void" style="text;html=1;strokeColor=none;fillColor=none;align=left;verticalAlign=top;spacingLeft=4;spacingRight=4;whiteSpace=wrap;overflow=hidden;rotatable=0;points=[[0,0.5],[1,0.5]];portConstraint=eastwest;" parent="dKrOlkIFahM6OOiq7HOB-176" vertex="1">
                    <mxGeometry y="398" width="310" height="26" as="geometry"/>
                </mxCell>
                <mxCell id="dKrOlkIFahM6OOiq7HOB-214" value="+_ readAdminFile(File file): User[]" style="text;html=1;strokeColor=none;fillColor=none;align=left;verticalAlign=top;spacingLeft=4;spacingRight=4;whiteSpace=wrap;overflow=hidden;rotatable=0;points=[[0,0.5],[1,0.5]];portConstraint=eastwest;" parent="dKrOlkIFahM6OOiq7HOB-176" vertex="1">
                    <mxGeometry y="424" width="310" height="26" as="geometry"/>
                </mxCell>
                <mxCell id="dKrOlkIFahM6OOiq7HOB-215" value="+_ readCustomerFile(File file): User[]" style="text;html=1;strokeColor=none;fillColor=none;align=left;verticalAlign=top;spacingLeft=4;spacingRight=4;whiteSpace=wrap;overflow=hidden;rotatable=0;points=[[0,0.5],[1,0.5]];portConstraint=eastwest;" parent="dKrOlkIFahM6OOiq7HOB-176" vertex="1">
                    <mxGeometry y="450" width="310" height="26" as="geometry"/>
                </mxCell>
                <mxCell id="dKrOlkIFahM6OOiq7HOB-216" value="+_ readCarFile(File file): Car[]" style="text;html=1;strokeColor=none;fillColor=none;align=left;verticalAlign=top;spacingLeft=4;spacingRight=4;whiteSpace=wrap;overflow=hidden;rotatable=0;points=[[0,0.5],[1,0.5]];portConstraint=eastwest;" parent="dKrOlkIFahM6OOiq7HOB-176" vertex="1">
                    <mxGeometry y="476" width="310" height="26" as="geometry"/>
                </mxCell>
                <mxCell id="dKrOlkIFahM6OOiq7HOB-217" value="+_ readBookingFile(File file): Booking[]" style="text;html=1;strokeColor=none;fillColor=none;align=left;verticalAlign=top;spacingLeft=4;spacingRight=4;whiteSpace=wrap;overflow=hidden;rotatable=0;points=[[0,0.5],[1,0.5]];portConstraint=eastwest;" parent="dKrOlkIFahM6OOiq7HOB-176" vertex="1">
                    <mxGeometry y="502" width="310" height="26" as="geometry"/>
                </mxCell>
                <mxCell id="dKrOlkIFahM6OOiq7HOB-218" value="+_ readLogFile(File file): Log[]" style="text;html=1;strokeColor=none;fillColor=none;align=left;verticalAlign=top;spacingLeft=4;spacingRight=4;whiteSpace=wrap;overflow=hidden;rotatable=0;points=[[0,0.5],[1,0.5]];portConstraint=eastwest;" parent="dKrOlkIFahM6OOiq7HOB-176" vertex="1">
                    <mxGeometry y="528" width="310" height="26" as="geometry"/>
                </mxCell>
                <mxCell id="dKrOlkIFahM6OOiq7HOB-219" value="+ rentCar(Car car, LocalDate bookingStart, LocalDate bookingEnd): Void" style="text;html=1;strokeColor=none;fillColor=none;align=left;verticalAlign=top;spacingLeft=4;spacingRight=4;whiteSpace=wrap;overflow=hidden;rotatable=0;points=[[0,0.5],[1,0.5]];portConstraint=eastwest;" parent="dKrOlkIFahM6OOiq7HOB-176" vertex="1">
                    <mxGeometry y="554" width="310" height="42" as="geometry"/>
                </mxCell>
                <mxCell id="dKrOlkIFahM6OOiq7HOB-220" value="+ returnCar(Car car, LocalDate bookingStart, LocalDate bookingEnd): Void" style="text;html=1;strokeColor=none;fillColor=none;align=left;verticalAlign=top;spacingLeft=4;spacingRight=4;whiteSpace=wrap;overflow=hidden;rotatable=0;points=[[0,0.5],[1,0.5]];portConstraint=eastwest;" parent="dKrOlkIFahM6OOiq7HOB-176" vertex="1">
                    <mxGeometry y="596" width="310" height="42" as="geometry"/>
                </mxCell>
                <mxCell id="dKrOlkIFahM6OOiq7HOB-221" value="+ addAdmin(Admin admin): Void" style="text;html=1;strokeColor=none;fillColor=none;align=left;verticalAlign=top;spacingLeft=4;spacingRight=4;whiteSpace=wrap;overflow=hidden;rotatable=0;points=[[0,0.5],[1,0.5]];portConstraint=eastwest;" parent="dKrOlkIFahM6OOiq7HOB-176" vertex="1">
                    <mxGeometry y="638" width="310" height="28" as="geometry"/>
                </mxCell>
                <mxCell id="dKrOlkIFahM6OOiq7HOB-222" value="+ addCustomer(Customer customer): Void" style="text;html=1;strokeColor=none;fillColor=none;align=left;verticalAlign=top;spacingLeft=4;spacingRight=4;whiteSpace=wrap;overflow=hidden;rotatable=0;points=[[0,0.5],[1,0.5]];portConstraint=eastwest;" parent="dKrOlkIFahM6OOiq7HOB-176" vertex="1">
                    <mxGeometry y="666" width="310" height="30" as="geometry"/>
                </mxCell>
                <mxCell id="dKrOlkIFahM6OOiq7HOB-223" value="+ addCar(Car car): Void" style="text;html=1;strokeColor=none;fillColor=none;align=left;verticalAlign=top;spacingLeft=4;spacingRight=4;whiteSpace=wrap;overflow=hidden;rotatable=0;points=[[0,0.5],[1,0.5]];portConstraint=eastwest;" parent="dKrOlkIFahM6OOiq7HOB-176" vertex="1">
                    <mxGeometry y="696" width="310" height="30" as="geometry"/>
                </mxCell>
                <mxCell id="dKrOlkIFahM6OOiq7HOB-224" value="+ addBooking(Booking b): Void" style="text;html=1;strokeColor=none;fillColor=none;align=left;verticalAlign=top;spacingLeft=4;spacingRight=4;whiteSpace=wrap;overflow=hidden;rotatable=0;points=[[0,0.5],[1,0.5]];portConstraint=eastwest;" parent="dKrOlkIFahM6OOiq7HOB-176" vertex="1">
                    <mxGeometry y="726" width="310" height="30" as="geometry"/>
                </mxCell>
                <mxCell id="dKrOlkIFahM6OOiq7HOB-225" value="+ addLog(Log l): Void" style="text;html=1;strokeColor=none;fillColor=none;align=left;verticalAlign=top;spacingLeft=4;spacingRight=4;whiteSpace=wrap;overflow=hidden;rotatable=0;points=[[0,0.5],[1,0.5]];portConstraint=eastwest;" parent="dKrOlkIFahM6OOiq7HOB-176" vertex="1">
                    <mxGeometry y="756" width="310" height="30" as="geometry"/>
                </mxCell>
                <mxCell id="dKrOlkIFahM6OOiq7HOB-226" value="+ updateBooking(Booking b): Void" style="text;html=1;strokeColor=none;fillColor=none;align=left;verticalAlign=top;spacingLeft=4;spacingRight=4;whiteSpace=wrap;overflow=hidden;rotatable=0;points=[[0,0.5],[1,0.5]];portConstraint=eastwest;" parent="dKrOlkIFahM6OOiq7HOB-176" vertex="1">
                    <mxGeometry y="786" width="310" height="30" as="geometry"/>
                </mxCell>
                <mxCell id="dKrOlkIFahM6OOiq7HOB-227" value="+ removeAdmin(User admin): Void" style="text;html=1;strokeColor=none;fillColor=none;align=left;verticalAlign=top;spacingLeft=4;spacingRight=4;whiteSpace=wrap;overflow=hidden;rotatable=0;points=[[0,0.5],[1,0.5]];portConstraint=eastwest;" parent="dKrOlkIFahM6OOiq7HOB-176" vertex="1">
                    <mxGeometry y="816" width="310" height="30" as="geometry"/>
                </mxCell>
                <mxCell id="dKrOlkIFahM6OOiq7HOB-228" value="+ removeCustomer(User customer): Void" style="text;html=1;strokeColor=none;fillColor=none;align=left;verticalAlign=top;spacingLeft=4;spacingRight=4;whiteSpace=wrap;overflow=hidden;rotatable=0;points=[[0,0.5],[1,0.5]];portConstraint=eastwest;" parent="dKrOlkIFahM6OOiq7HOB-176" vertex="1">
                    <mxGeometry y="846" width="310" height="30" as="geometry"/>
                </mxCell>
                <mxCell id="dKrOlkIFahM6OOiq7HOB-229" value="+ removeCar(Car car): Void" style="text;html=1;strokeColor=none;fillColor=none;align=left;verticalAlign=top;spacingLeft=4;spacingRight=4;whiteSpace=wrap;overflow=hidden;rotatable=0;points=[[0,0.5],[1,0.5]];portConstraint=eastwest;" parent="dKrOlkIFahM6OOiq7HOB-176" vertex="1">
                    <mxGeometry y="876" width="310" height="30" as="geometry"/>
                </mxCell>
                <mxCell id="dKrOlkIFahM6OOiq7HOB-230" value="+ removeBooking(Booking b): Void" style="text;html=1;strokeColor=none;fillColor=none;align=left;verticalAlign=top;spacingLeft=4;spacingRight=4;whiteSpace=wrap;overflow=hidden;rotatable=0;points=[[0,0.5],[1,0.5]];portConstraint=eastwest;" parent="dKrOlkIFahM6OOiq7HOB-176" vertex="1">
                    <mxGeometry y="906" width="310" height="30" as="geometry"/>
                </mxCell>
                <mxCell id="dKrOlkIFahM6OOiq7HOB-231" value="+ findAdmin(String email): User" style="text;html=1;strokeColor=none;fillColor=none;align=left;verticalAlign=top;spacingLeft=4;spacingRight=4;whiteSpace=wrap;overflow=hidden;rotatable=0;points=[[0,0.5],[1,0.5]];portConstraint=eastwest;" parent="dKrOlkIFahM6OOiq7HOB-176" vertex="1">
                    <mxGeometry y="936" width="310" height="30" as="geometry"/>
                </mxCell>
                <mxCell id="dKrOlkIFahM6OOiq7HOB-232" value="+ findCustomer(String email): Customer" style="text;html=1;strokeColor=none;fillColor=none;align=left;verticalAlign=top;spacingLeft=4;spacingRight=4;whiteSpace=wrap;overflow=hidden;rotatable=0;points=[[0,0.5],[1,0.5]];portConstraint=eastwest;" parent="dKrOlkIFahM6OOiq7HOB-176" vertex="1">
                    <mxGeometry y="966" width="310" height="30" as="geometry"/>
                </mxCell>
                <mxCell id="dKrOlkIFahM6OOiq7HOB-233" value="+ findCar(String platNumber): Car" style="text;html=1;strokeColor=none;fillColor=none;align=left;verticalAlign=top;spacingLeft=4;spacingRight=4;whiteSpace=wrap;overflow=hidden;rotatable=0;points=[[0,0.5],[1,0.5]];portConstraint=eastwest;" parent="dKrOlkIFahM6OOiq7HOB-176" vertex="1">
                    <mxGeometry y="996" width="310" height="30" as="geometry"/>
                </mxCell>
                <mxCell id="dKrOlkIFahM6OOiq7HOB-234" value="+ findBooking(Booking b): Booking" style="text;html=1;strokeColor=none;fillColor=none;align=left;verticalAlign=top;spacingLeft=4;spacingRight=4;whiteSpace=wrap;overflow=hidden;rotatable=0;points=[[0,0.5],[1,0.5]];portConstraint=eastwest;" parent="dKrOlkIFahM6OOiq7HOB-176" vertex="1">
                    <mxGeometry y="1026" width="310" height="30" as="geometry"/>
                </mxCell>
                <mxCell id="dKrOlkIFahM6OOiq7HOB-248" value="" style="endArrow=block;endSize=16;endFill=0;html=1;rounded=0;entryX=1;entryY=-0.094;entryDx=0;entryDy=0;entryPerimeter=0;exitX=0.5;exitY=0;exitDx=0;exitDy=0;movable=1;resizable=1;rotatable=1;deletable=1;editable=1;connectable=1;" parent="1" source="dKrOlkIFahM6OOiq7HOB-25" target="dKrOlkIFahM6OOiq7HOB-5" edge="1">
                    <mxGeometry width="160" relative="1" as="geometry">
                        <mxPoint x="-140" y="80" as="sourcePoint"/>
                        <mxPoint x="20" y="80" as="targetPoint"/>
                        <Array as="points">
                            <mxPoint x="140" y="113"/>
                        </Array>
                    </mxGeometry>
                </mxCell>
                <mxCell id="dKrOlkIFahM6OOiq7HOB-252" value="" style="endArrow=block;endSize=16;endFill=0;html=1;rounded=0;exitX=0.525;exitY=-0.005;exitDx=0;exitDy=0;exitPerimeter=0;entryX=1.003;entryY=-0.094;entryDx=0;entryDy=0;entryPerimeter=0;movable=1;resizable=1;rotatable=1;deletable=1;editable=1;connectable=1;" parent="1" source="dKrOlkIFahM6OOiq7HOB-39" target="dKrOlkIFahM6OOiq7HOB-5" edge="1">
                    <mxGeometry width="160" relative="1" as="geometry">
                        <mxPoint x="199.19" y="187.0000000000001" as="sourcePoint"/>
                        <mxPoint x="-410" y="100" as="targetPoint"/>
                        <Array as="points">
                            <mxPoint x="-207" y="113"/>
                        </Array>
                    </mxGeometry>
                </mxCell>
                <mxCell id="dKrOlkIFahM6OOiq7HOB-255" value="" style="endArrow=diamondThin;endFill=0;endSize=24;html=1;rounded=0;entryX=0.407;entryY=0.001;entryDx=0;entryDy=0;entryPerimeter=0;exitX=0.5;exitY=1;exitDx=0;exitDy=0;" parent="1" source="dKrOlkIFahM6OOiq7HOB-39" target="dKrOlkIFahM6OOiq7HOB-176" edge="1">
                    <mxGeometry width="160" relative="1" as="geometry">
                        <mxPoint x="-250" y="730" as="sourcePoint"/>
                        <mxPoint x="-160" y="740" as="targetPoint"/>
                    </mxGeometry>
                </mxCell>
                <mxCell id="dKrOlkIFahM6OOiq7HOB-256" value="" style="endArrow=diamondThin;endFill=0;endSize=24;html=1;rounded=0;entryX=0.581;entryY=0;entryDx=0;entryDy=0;entryPerimeter=0;exitX=0.487;exitY=1;exitDx=0;exitDy=0;exitPerimeter=0;" parent="1" source="dKrOlkIFahM6OOiq7HOB-157" target="dKrOlkIFahM6OOiq7HOB-176" edge="1">
                    <mxGeometry width="160" relative="1" as="geometry">
                        <mxPoint x="-180" y="750" as="sourcePoint"/>
                        <mxPoint x="-149.93" y="688.0000000000002" as="targetPoint"/>
                        <Array as="points">
                            <mxPoint x="136" y="650"/>
                            <mxPoint x="-160" y="650"/>
                        </Array>
                    </mxGeometry>
                </mxCell>
                <mxCell id="dKrOlkIFahM6OOiq7HOB-261" value="" style="endArrow=diamondThin;endFill=0;endSize=24;html=1;rounded=0;exitX=0.55;exitY=-0.002;exitDx=0;exitDy=0;exitPerimeter=0;entryX=0.709;entryY=0.995;entryDx=0;entryDy=0;entryPerimeter=0;" parent="1" source="dKrOlkIFahM6OOiq7HOB-81" target="dKrOlkIFahM6OOiq7HOB-157" edge="1">
                    <mxGeometry width="160" relative="1" as="geometry">
                        <mxPoint x="200" y="680" as="sourcePoint"/>
                        <mxPoint x="360" y="680" as="targetPoint"/>
                    </mxGeometry>
                </mxCell>
                <mxCell id="dKrOlkIFahM6OOiq7HOB-262" value="" style="endArrow=diamondThin;endFill=0;endSize=24;html=1;rounded=0;exitX=0.257;exitY=-0.001;exitDx=0;exitDy=0;exitPerimeter=0;" parent="1" source="dKrOlkIFahM6OOiq7HOB-81" edge="1">
                    <mxGeometry width="160" relative="1" as="geometry">
                        <mxPoint x="-90" y="730" as="sourcePoint"/>
                        <mxPoint x="-150" y="540" as="targetPoint"/>
                        <Array as="points">
                            <mxPoint x="110" y="630"/>
                            <mxPoint x="-150" y="630"/>
                        </Array>
                    </mxGeometry>
                </mxCell>
                <mxCell id="dKrOlkIFahM6OOiq7HOB-264" value="" style="endArrow=diamondThin;endFill=0;endSize=24;html=1;rounded=0;entryX=1;entryY=0.5;entryDx=0;entryDy=0;exitX=0.361;exitY=-0.001;exitDx=0;exitDy=0;exitPerimeter=0;" parent="1" source="dKrOlkIFahM6OOiq7HOB-14" target="dKrOlkIFahM6OOiq7HOB-151" edge="1">
                    <mxGeometry width="160" relative="1" as="geometry">
                        <mxPoint x="560" y="330" as="sourcePoint"/>
                        <mxPoint x="720" y="330" as="targetPoint"/>
                        <Array as="points">
                            <mxPoint x="550" y="291"/>
                        </Array>
                    </mxGeometry>
                </mxCell>
                <mxCell id="dKrOlkIFahM6OOiq7HOB-257" value="" style="endArrow=diamondThin;endFill=0;endSize=24;html=1;rounded=0;" parent="1" edge="1">
                    <mxGeometry width="160" relative="1" as="geometry">
                        <mxPoint x="30" y="1130" as="sourcePoint"/>
                        <mxPoint x="-30" y="1130" as="targetPoint"/>
                    </mxGeometry>
                </mxCell>
                <mxCell id="lrxywo6vBFWgbj2DQjJt-1" value="" style="endArrow=none;html=1;rounded=0;exitX=1.003;exitY=0.278;exitDx=0;exitDy=0;exitPerimeter=0;entryX=-0.002;entryY=1.09;entryDx=0;entryDy=0;entryPerimeter=0;" parent="1" source="dKrOlkIFahM6OOiq7HOB-161" target="dKrOlkIFahM6OOiq7HOB-195" edge="1">
                    <mxGeometry width="50" height="50" relative="1" as="geometry">
                        <mxPoint x="-438.8000000000002" y="997.44" as="sourcePoint"/>
                        <mxPoint x="-360" y="910" as="targetPoint"/>
                    </mxGeometry>
                </mxCell>
                <mxCell id="lrxywo6vBFWgbj2DQjJt-2" value="" style="endArrow=none;html=1;rounded=0;entryX=0;entryY=0.5;entryDx=0;entryDy=0;entryPerimeter=0;" parent="1" target="dKrOlkIFahM6OOiq7HOB-21" edge="1">
                    <mxGeometry width="50" height="50" relative="1" as="geometry">
                        <mxPoint x="-110" y="750" as="sourcePoint"/>
                        <mxPoint x="439.08500000000004" y="713.656" as="targetPoint"/>
                        <Array as="points">
                            <mxPoint x="-110" y="690"/>
                        </Array>
                    </mxGeometry>
                </mxCell>
                <mxCell id="lrxywo6vBFWgbj2DQjJt-3" value="1" style="text;html=1;align=center;verticalAlign=middle;resizable=0;points=[];autosize=1;strokeColor=none;fillColor=none;" parent="1" vertex="1">
                    <mxGeometry x="290" y="250" width="30" height="30" as="geometry"/>
                </mxCell>
                <mxCell id="lrxywo6vBFWgbj2DQjJt-4" value="*" style="text;html=1;align=center;verticalAlign=middle;resizable=0;points=[];autosize=1;strokeColor=none;fillColor=none;" parent="1" vertex="1">
                    <mxGeometry x="550" y="450" width="30" height="30" as="geometry"/>
                </mxCell>
                <mxCell id="lrxywo6vBFWgbj2DQjJt-5" value="1" style="text;html=1;align=center;verticalAlign=middle;resizable=0;points=[];autosize=1;strokeColor=none;fillColor=none;" parent="1" vertex="1">
                    <mxGeometry x="-370" y="910" width="30" height="30" as="geometry"/>
                </mxCell>
                <mxCell id="lrxywo6vBFWgbj2DQjJt-6" value="0..*" style="text;html=1;align=center;verticalAlign=middle;resizable=0;points=[];autosize=1;strokeColor=none;fillColor=none;" parent="1" vertex="1">
                    <mxGeometry x="-445" y="910" width="40" height="30" as="geometry"/>
                </mxCell>
                <mxCell id="lrxywo6vBFWgbj2DQjJt-7" value="1" style="text;html=1;align=center;verticalAlign=middle;resizable=0;points=[];autosize=1;strokeColor=none;fillColor=none;" parent="1" vertex="1">
                    <mxGeometry x="-250" y="720" width="30" height="30" as="geometry"/>
                </mxCell>
                <mxCell id="lrxywo6vBFWgbj2DQjJt-8" value="1" style="text;html=1;align=center;verticalAlign=middle;resizable=0;points=[];autosize=1;strokeColor=none;fillColor=none;" parent="1" vertex="1">
                    <mxGeometry x="-190" y="720" width="30" height="30" as="geometry"/>
                </mxCell>
                <mxCell id="lrxywo6vBFWgbj2DQjJt-9" value="1" style="text;html=1;align=center;verticalAlign=middle;resizable=0;points=[];autosize=1;strokeColor=none;fillColor=none;" parent="1" vertex="1">
                    <mxGeometry x="-130" y="720" width="30" height="30" as="geometry"/>
                </mxCell>
                <mxCell id="lrxywo6vBFWgbj2DQjJt-10" value="1" style="text;html=1;align=center;verticalAlign=middle;resizable=0;points=[];autosize=1;strokeColor=none;fillColor=none;" parent="1" vertex="1">
                    <mxGeometry x="-40" y="1100" width="30" height="30" as="geometry"/>
                </mxCell>
                <mxCell id="lrxywo6vBFWgbj2DQjJt-11" value="0..*" style="text;html=1;align=center;verticalAlign=middle;resizable=0;points=[];autosize=1;strokeColor=none;fillColor=none;" parent="1" vertex="1">
                    <mxGeometry y="1100" width="40" height="30" as="geometry"/>
                </mxCell>
                <mxCell id="lrxywo6vBFWgbj2DQjJt-12" value="1..*" style="text;html=1;align=center;verticalAlign=middle;resizable=0;points=[];autosize=1;strokeColor=none;fillColor=none;" parent="1" vertex="1">
                    <mxGeometry x="-245" y="535" width="40" height="30" as="geometry"/>
                </mxCell>
                <mxCell id="lrxywo6vBFWgbj2DQjJt-13" value="0..*" style="text;html=1;align=center;verticalAlign=middle;resizable=0;points=[];autosize=1;strokeColor=none;fillColor=none;" parent="1" vertex="1">
                    <mxGeometry x="105" y="500" width="40" height="30" as="geometry"/>
                </mxCell>
                <mxCell id="lrxywo6vBFWgbj2DQjJt-14" value="*" style="text;html=1;align=center;verticalAlign=middle;resizable=0;points=[];autosize=1;strokeColor=none;fillColor=none;" parent="1" vertex="1">
                    <mxGeometry x="410" y="750" width="30" height="30" as="geometry"/>
                </mxCell>
                <mxCell id="lrxywo6vBFWgbj2DQjJt-16" value="1" style="text;html=1;align=center;verticalAlign=middle;resizable=0;points=[];autosize=1;strokeColor=none;fillColor=none;" parent="1" vertex="1">
                    <mxGeometry x="-180" y="535" width="30" height="30" as="geometry"/>
                </mxCell>
                <mxCell id="lrxywo6vBFWgbj2DQjJt-17" value="0..*" style="text;html=1;align=center;verticalAlign=middle;resizable=0;points=[];autosize=1;strokeColor=none;fillColor=none;" parent="1" vertex="1">
                    <mxGeometry x="70" y="780" width="40" height="30" as="geometry"/>
                </mxCell>
                <mxCell id="lrxywo6vBFWgbj2DQjJt-18" value="1" style="text;html=1;align=center;verticalAlign=middle;resizable=0;points=[];autosize=1;strokeColor=none;fillColor=none;" parent="1" vertex="1">
                    <mxGeometry x="170" y="504" width="30" height="30" as="geometry"/>
                </mxCell>
                <mxCell id="lrxywo6vBFWgbj2DQjJt-19" value="0..*" style="text;html=1;align=center;verticalAlign=middle;resizable=0;points=[];autosize=1;strokeColor=none;fillColor=none;" parent="1" vertex="1">
                    <mxGeometry x="165" y="780" width="40" height="30" as="geometry"/>
                </mxCell>
            </root>
        </mxGraphModel>
    </diagram>
    <diagram name="old version" id="9f46799a-70d6-7492-0946-bef42562c5a5">
        <mxGraphModel dx="1662" dy="762" grid="1" gridSize="10" guides="1" tooltips="1" connect="1" arrows="1" fold="1" page="1" pageScale="1" pageWidth="1100" pageHeight="850" background="none" math="0" shadow="0">
            <root>
                <mxCell id="0"/>
                <mxCell id="1" parent="0"/>
                <mxCell id="78961159f06e98e8-17" value="Dealership" style="swimlane;html=1;fontStyle=1;align=center;verticalAlign=top;childLayout=stackLayout;horizontal=1;startSize=26;horizontalStack=0;resizeParent=1;resizeLast=0;collapsible=1;marginBottom=0;swimlaneFillColor=#ffffff;rounded=0;shadow=0;comic=0;labelBackgroundColor=none;strokeWidth=1;fillColor=none;fontFamily=Verdana;fontSize=12" parent="1" vertex="1">
                    <mxGeometry x="90" y="83" width="160" height="320" as="geometry"/>
                </mxCell>
                <mxCell id="78961159f06e98e8-21" value="# id: String" style="text;html=1;strokeColor=none;fillColor=none;align=left;verticalAlign=top;spacingLeft=4;spacingRight=4;whiteSpace=wrap;overflow=hidden;rotatable=0;points=[[0,0.5],[1,0.5]];portConstraint=eastwest;" parent="78961159f06e98e8-17" vertex="1">
                    <mxGeometry y="26" width="160" height="26" as="geometry"/>
                </mxCell>
                <mxCell id="78961159f06e98e8-23" value="- carId: String" style="text;html=1;strokeColor=none;fillColor=none;align=left;verticalAlign=top;spacingLeft=4;spacingRight=4;whiteSpace=wrap;overflow=hidden;rotatable=0;points=[[0,0.5],[1,0.5]];portConstraint=eastwest;" parent="78961159f06e98e8-17" vertex="1">
                    <mxGeometry y="52" width="160" height="26" as="geometry"/>
                </mxCell>
                <mxCell id="78961159f06e98e8-25" value="- dealerId: String" style="text;html=1;strokeColor=none;fillColor=none;align=left;verticalAlign=top;spacingLeft=4;spacingRight=4;whiteSpace=wrap;overflow=hidden;rotatable=0;points=[[0,0.5],[1,0.5]];portConstraint=eastwest;" parent="78961159f06e98e8-17" vertex="1">
                    <mxGeometry y="78" width="160" height="26" as="geometry"/>
                </mxCell>
                <mxCell id="78961159f06e98e8-26" value="+ field: type" style="text;html=1;strokeColor=none;fillColor=none;align=left;verticalAlign=top;spacingLeft=4;spacingRight=4;whiteSpace=wrap;overflow=hidden;rotatable=0;points=[[0,0.5],[1,0.5]];portConstraint=eastwest;" parent="78961159f06e98e8-17" vertex="1">
                    <mxGeometry y="104" width="160" height="26" as="geometry"/>
                </mxCell>
                <mxCell id="78961159f06e98e8-24" value="+ field: type" style="text;html=1;strokeColor=none;fillColor=none;align=left;verticalAlign=top;spacingLeft=4;spacingRight=4;whiteSpace=wrap;overflow=hidden;rotatable=0;points=[[0,0.5],[1,0.5]];portConstraint=eastwest;" parent="78961159f06e98e8-17" vertex="1">
                    <mxGeometry y="130" width="160" height="26" as="geometry"/>
                </mxCell>
                <mxCell id="78961159f06e98e8-19" value="" style="line;html=1;strokeWidth=1;fillColor=none;align=left;verticalAlign=middle;spacingTop=-1;spacingLeft=3;spacingRight=3;rotatable=0;labelPosition=right;points=[];portConstraint=eastwest;" parent="78961159f06e98e8-17" vertex="1">
                    <mxGeometry y="156" width="160" height="8" as="geometry"/>
                </mxCell>
                <mxCell id="78961159f06e98e8-20" value="+ rentCar(): Void" style="text;html=1;strokeColor=none;fillColor=none;align=left;verticalAlign=top;spacingLeft=4;spacingRight=4;whiteSpace=wrap;overflow=hidden;rotatable=0;points=[[0,0.5],[1,0.5]];portConstraint=eastwest;" parent="78961159f06e98e8-17" vertex="1">
                    <mxGeometry y="164" width="160" height="26" as="geometry"/>
                </mxCell>
                <mxCell id="78961159f06e98e8-27" value="+ returnCar(): Void" style="text;html=1;strokeColor=none;fillColor=none;align=left;verticalAlign=top;spacingLeft=4;spacingRight=4;whiteSpace=wrap;overflow=hidden;rotatable=0;points=[[0,0.5],[1,0.5]];portConstraint=eastwest;" parent="78961159f06e98e8-17" vertex="1">
                    <mxGeometry y="190" width="160" height="26" as="geometry"/>
                </mxCell>
                <mxCell id="VywgzREQ6usy_nSy3DeH-2" value="+ addDealer(): Void" style="text;html=1;strokeColor=none;fillColor=none;align=left;verticalAlign=top;spacingLeft=4;spacingRight=4;whiteSpace=wrap;overflow=hidden;rotatable=0;points=[[0,0.5],[1,0.5]];portConstraint=eastwest;" parent="78961159f06e98e8-17" vertex="1">
                    <mxGeometry y="216" width="160" height="26" as="geometry"/>
                </mxCell>
                <mxCell id="VywgzREQ6usy_nSy3DeH-3" value="+ removeDealer(): Void" style="text;html=1;strokeColor=none;fillColor=none;align=left;verticalAlign=top;spacingLeft=4;spacingRight=4;whiteSpace=wrap;overflow=hidden;rotatable=0;points=[[0,0.5],[1,0.5]];portConstraint=eastwest;" parent="78961159f06e98e8-17" vertex="1">
                    <mxGeometry y="242" width="160" height="26" as="geometry"/>
                </mxCell>
                <mxCell id="VywgzREQ6usy_nSy3DeH-4" value="+ generateReport():&amp;nbsp;" style="text;html=1;strokeColor=none;fillColor=none;align=left;verticalAlign=top;spacingLeft=4;spacingRight=4;whiteSpace=wrap;overflow=hidden;rotatable=0;points=[[0,0.5],[1,0.5]];portConstraint=eastwest;" parent="78961159f06e98e8-17" vertex="1">
                    <mxGeometry y="268" width="160" height="26" as="geometry"/>
                </mxCell>
                <mxCell id="VywgzREQ6usy_nSy3DeH-5" value="+ bookingConfirmation():" style="text;html=1;strokeColor=none;fillColor=none;align=left;verticalAlign=top;spacingLeft=4;spacingRight=4;whiteSpace=wrap;overflow=hidden;rotatable=0;points=[[0,0.5],[1,0.5]];portConstraint=eastwest;" parent="78961159f06e98e8-17" vertex="1">
                    <mxGeometry y="294" width="160" height="26" as="geometry"/>
                </mxCell>
                <mxCell id="78961159f06e98e8-30" value="Cars" style="swimlane;html=1;fontStyle=1;align=center;verticalAlign=top;childLayout=stackLayout;horizontal=1;startSize=26;horizontalStack=0;resizeParent=1;resizeLast=0;collapsible=1;marginBottom=0;swimlaneFillColor=#ffffff;rounded=0;shadow=0;comic=0;labelBackgroundColor=none;strokeWidth=1;fillColor=none;fontFamily=Verdana;fontSize=12" parent="1" vertex="1">
                    <mxGeometry x="430" y="83" width="160" height="277" as="geometry">
                        <mxRectangle x="430" y="83" width="70" height="30" as="alternateBounds"/>
                    </mxGeometry>
                </mxCell>
                <mxCell id="78961159f06e98e8-31" value="#&amp;nbsp; id: String" style="text;html=1;strokeColor=none;fillColor=none;align=left;verticalAlign=top;spacingLeft=4;spacingRight=4;whiteSpace=wrap;overflow=hidden;rotatable=0;points=[[0,0.5],[1,0.5]];portConstraint=eastwest;" parent="78961159f06e98e8-30" vertex="1">
                    <mxGeometry y="26" width="160" height="26" as="geometry"/>
                </mxCell>
                <mxCell id="78961159f06e98e8-32" value="- name: String" style="text;html=1;strokeColor=none;fillColor=none;align=left;verticalAlign=top;spacingLeft=4;spacingRight=4;whiteSpace=wrap;overflow=hidden;rotatable=0;points=[[0,0.5],[1,0.5]];portConstraint=eastwest;" parent="78961159f06e98e8-30" vertex="1">
                    <mxGeometry y="52" width="160" height="26" as="geometry"/>
                </mxCell>
                <mxCell id="78961159f06e98e8-33" value="- color: String" style="text;html=1;strokeColor=none;fillColor=none;align=left;verticalAlign=top;spacingLeft=4;spacingRight=4;whiteSpace=wrap;overflow=hidden;rotatable=0;points=[[0,0.5],[1,0.5]];portConstraint=eastwest;" parent="78961159f06e98e8-30" vertex="1">
                    <mxGeometry y="78" width="160" height="26" as="geometry"/>
                </mxCell>
                <mxCell id="78961159f06e98e8-34" value="- condition: Boolean" style="text;html=1;strokeColor=none;fillColor=none;align=left;verticalAlign=top;spacingLeft=4;spacingRight=4;whiteSpace=wrap;overflow=hidden;rotatable=0;points=[[0,0.5],[1,0.5]];portConstraint=eastwest;" parent="78961159f06e98e8-30" vertex="1">
                    <mxGeometry y="104" width="160" height="26" as="geometry"/>
                </mxCell>
                <mxCell id="78961159f06e98e8-36" value="- status: String" style="text;html=1;strokeColor=none;fillColor=none;align=left;verticalAlign=top;spacingLeft=4;spacingRight=4;whiteSpace=wrap;overflow=hidden;rotatable=0;points=[[0,0.5],[1,0.5]];portConstraint=eastwest;" parent="78961159f06e98e8-30" vertex="1">
                    <mxGeometry y="130" width="160" height="26" as="geometry"/>
                </mxCell>
                <mxCell id="78961159f06e98e8-37" value="+ field: type" style="text;html=1;strokeColor=none;fillColor=none;align=left;verticalAlign=top;spacingLeft=4;spacingRight=4;whiteSpace=wrap;overflow=hidden;rotatable=0;points=[[0,0.5],[1,0.5]];portConstraint=eastwest;" parent="78961159f06e98e8-30" vertex="1">
                    <mxGeometry y="156" width="160" height="26" as="geometry"/>
                </mxCell>
                <mxCell id="78961159f06e98e8-38" value="" style="line;html=1;strokeWidth=1;fillColor=none;align=left;verticalAlign=middle;spacingTop=-1;spacingLeft=3;spacingRight=3;rotatable=0;labelPosition=right;points=[];portConstraint=eastwest;" parent="78961159f06e98e8-30" vertex="1">
                    <mxGeometry y="182" width="160" height="8" as="geometry"/>
                </mxCell>
                <mxCell id="78961159f06e98e8-39" value="+ addDates(): Void" style="text;html=1;strokeColor=none;fillColor=none;align=left;verticalAlign=top;spacingLeft=4;spacingRight=4;whiteSpace=wrap;overflow=hidden;rotatable=0;points=[[0,0.5],[1,0.5]];portConstraint=eastwest;" parent="78961159f06e98e8-30" vertex="1">
                    <mxGeometry y="190" width="160" height="26" as="geometry"/>
                </mxCell>
                <mxCell id="78961159f06e98e8-40" value="+ removeDates(): Void" style="text;html=1;strokeColor=none;fillColor=none;align=left;verticalAlign=top;spacingLeft=4;spacingRight=4;whiteSpace=wrap;overflow=hidden;rotatable=0;points=[[0,0.5],[1,0.5]];portConstraint=eastwest;" parent="78961159f06e98e8-30" vertex="1">
                    <mxGeometry y="216" width="160" height="26" as="geometry"/>
                </mxCell>
                <mxCell id="78961159f06e98e8-42" value="+ showDetails():" style="text;html=1;strokeColor=none;fillColor=none;align=left;verticalAlign=top;spacingLeft=4;spacingRight=4;whiteSpace=wrap;overflow=hidden;rotatable=0;points=[[0,0.5],[1,0.5]];portConstraint=eastwest;" parent="78961159f06e98e8-30" vertex="1">
                    <mxGeometry y="242" width="160" height="26" as="geometry"/>
                </mxCell>
                <mxCell id="78961159f06e98e8-43" value="Customers" style="swimlane;html=1;fontStyle=1;align=center;verticalAlign=top;childLayout=stackLayout;horizontal=1;startSize=26;horizontalStack=0;resizeParent=1;resizeLast=0;collapsible=1;marginBottom=0;swimlaneFillColor=#ffffff;rounded=0;shadow=0;comic=0;labelBackgroundColor=none;strokeWidth=1;fillColor=none;fontFamily=Verdana;fontSize=12" parent="1" vertex="1">
                    <mxGeometry x="720" y="123" width="190" height="357" as="geometry"/>
                </mxCell>
                <mxCell id="78961159f06e98e8-44" value="# id: String" style="text;html=1;strokeColor=none;fillColor=none;align=left;verticalAlign=top;spacingLeft=4;spacingRight=4;whiteSpace=wrap;overflow=hidden;rotatable=0;points=[[0,0.5],[1,0.5]];portConstraint=eastwest;" parent="78961159f06e98e8-43" vertex="1">
                    <mxGeometry y="26" width="190" height="26" as="geometry"/>
                </mxCell>
                <mxCell id="78961159f06e98e8-45" value="- name: String" style="text;html=1;strokeColor=none;fillColor=none;align=left;verticalAlign=top;spacingLeft=4;spacingRight=4;whiteSpace=wrap;overflow=hidden;rotatable=0;points=[[0,0.5],[1,0.5]];portConstraint=eastwest;" parent="78961159f06e98e8-43" vertex="1">
                    <mxGeometry y="52" width="190" height="26" as="geometry"/>
                </mxCell>
                <mxCell id="78961159f06e98e8-49" value="- phoneNo: String" style="text;html=1;strokeColor=none;fillColor=none;align=left;verticalAlign=top;spacingLeft=4;spacingRight=4;whiteSpace=wrap;overflow=hidden;rotatable=0;points=[[0,0.5],[1,0.5]];portConstraint=eastwest;" parent="78961159f06e98e8-43" vertex="1">
                    <mxGeometry y="78" width="190" height="26" as="geometry"/>
                </mxCell>
                <mxCell id="78961159f06e98e8-50" value="- carID: String" style="text;html=1;strokeColor=none;fillColor=none;align=left;verticalAlign=top;spacingLeft=4;spacingRight=4;whiteSpace=wrap;overflow=hidden;rotatable=0;points=[[0,0.5],[1,0.5]];portConstraint=eastwest;" parent="78961159f06e98e8-43" vertex="1">
                    <mxGeometry y="104" width="190" height="26" as="geometry"/>
                </mxCell>
                <mxCell id="78961159f06e98e8-51" value="" style="line;html=1;strokeWidth=1;fillColor=none;align=left;verticalAlign=middle;spacingTop=-1;spacingLeft=3;spacingRight=3;rotatable=0;labelPosition=right;points=[];portConstraint=eastwest;" parent="78961159f06e98e8-43" vertex="1">
                    <mxGeometry y="130" width="190" height="10" as="geometry"/>
                </mxCell>
                <mxCell id="78961159f06e98e8-52" value="+ pay(): Void" style="text;html=1;strokeColor=none;fillColor=none;align=left;verticalAlign=top;spacingLeft=4;spacingRight=4;whiteSpace=wrap;overflow=hidden;rotatable=0;points=[[0,0.5],[1,0.5]];portConstraint=eastwest;" parent="78961159f06e98e8-43" vertex="1">
                    <mxGeometry y="140" width="190" height="26" as="geometry"/>
                </mxCell>
                <mxCell id="78961159f06e98e8-53" value="+ register(): Void" style="text;html=1;strokeColor=none;fillColor=none;align=left;verticalAlign=top;spacingLeft=4;spacingRight=4;whiteSpace=wrap;overflow=hidden;rotatable=0;points=[[0,0.5],[1,0.5]];portConstraint=eastwest;" parent="78961159f06e98e8-43" vertex="1">
                    <mxGeometry y="166" width="190" height="26" as="geometry"/>
                </mxCell>
                <mxCell id="VywgzREQ6usy_nSy3DeH-8" value="+ login(): Void" style="text;html=1;strokeColor=none;fillColor=none;align=left;verticalAlign=top;spacingLeft=4;spacingRight=4;whiteSpace=wrap;overflow=hidden;rotatable=0;points=[[0,0.5],[1,0.5]];portConstraint=eastwest;" parent="78961159f06e98e8-43" vertex="1">
                    <mxGeometry y="192" width="190" height="26" as="geometry"/>
                </mxCell>
                <mxCell id="VywgzREQ6usy_nSy3DeH-9" value="+ carCatalog(): Void" style="text;html=1;strokeColor=none;fillColor=none;align=left;verticalAlign=top;spacingLeft=4;spacingRight=4;whiteSpace=wrap;overflow=hidden;rotatable=0;points=[[0,0.5],[1,0.5]];portConstraint=eastwest;" parent="78961159f06e98e8-43" vertex="1">
                    <mxGeometry y="218" width="190" height="26" as="geometry"/>
                </mxCell>
                <mxCell id="VywgzREQ6usy_nSy3DeH-10" value="+ deleteAcc(): Void" style="text;html=1;strokeColor=none;fillColor=none;align=left;verticalAlign=top;spacingLeft=4;spacingRight=4;whiteSpace=wrap;overflow=hidden;rotatable=0;points=[[0,0.5],[1,0.5]];portConstraint=eastwest;" parent="78961159f06e98e8-43" vertex="1">
                    <mxGeometry y="244" width="190" height="26" as="geometry"/>
                </mxCell>
                <mxCell id="VywgzREQ6usy_nSy3DeH-11" value="+ changePersonalInfo(): Void" style="text;html=1;strokeColor=none;fillColor=none;align=left;verticalAlign=top;spacingLeft=4;spacingRight=4;whiteSpace=wrap;overflow=hidden;rotatable=0;points=[[0,0.5],[1,0.5]];portConstraint=eastwest;" parent="78961159f06e98e8-43" vertex="1">
                    <mxGeometry y="270" width="190" height="26" as="geometry"/>
                </mxCell>
                <mxCell id="VywgzREQ6usy_nSy3DeH-12" value="+ bookCar(): Void" style="text;html=1;strokeColor=none;fillColor=none;align=left;verticalAlign=top;spacingLeft=4;spacingRight=4;whiteSpace=wrap;overflow=hidden;rotatable=0;points=[[0,0.5],[1,0.5]];portConstraint=eastwest;" parent="78961159f06e98e8-43" vertex="1">
                    <mxGeometry y="296" width="190" height="26" as="geometry"/>
                </mxCell>
                <mxCell id="VywgzREQ6usy_nSy3DeH-13" value="+ returnCar(): Void" style="text;html=1;strokeColor=none;fillColor=none;align=left;verticalAlign=top;spacingLeft=4;spacingRight=4;whiteSpace=wrap;overflow=hidden;rotatable=0;points=[[0,0.5],[1,0.5]];portConstraint=eastwest;" parent="78961159f06e98e8-43" vertex="1">
                    <mxGeometry y="322" width="190" height="26" as="geometry"/>
                </mxCell>
                <mxCell id="78961159f06e98e8-69" value="Dealers" style="swimlane;html=1;fontStyle=1;align=center;verticalAlign=top;childLayout=stackLayout;horizontal=1;startSize=26;horizontalStack=0;resizeParent=1;resizeLast=0;collapsible=1;marginBottom=0;swimlaneFillColor=#ffffff;rounded=0;shadow=0;comic=0;labelBackgroundColor=none;strokeWidth=1;fillColor=none;fontFamily=Verdana;fontSize=12" parent="1" vertex="1">
                    <mxGeometry x="370" y="380" width="210" height="430" as="geometry"/>
                </mxCell>
                <mxCell id="78961159f06e98e8-70" value="# id: String" style="text;html=1;strokeColor=none;fillColor=none;align=left;verticalAlign=top;spacingLeft=4;spacingRight=4;whiteSpace=wrap;overflow=hidden;rotatable=0;points=[[0,0.5],[1,0.5]];portConstraint=eastwest;" parent="78961159f06e98e8-69" vertex="1">
                    <mxGeometry y="26" width="210" height="26" as="geometry"/>
                </mxCell>
                <mxCell id="78961159f06e98e8-71" value="- name: String" style="text;html=1;strokeColor=none;fillColor=none;align=left;verticalAlign=top;spacingLeft=4;spacingRight=4;whiteSpace=wrap;overflow=hidden;rotatable=0;points=[[0,0.5],[1,0.5]];portConstraint=eastwest;" parent="78961159f06e98e8-69" vertex="1">
                    <mxGeometry y="52" width="210" height="26" as="geometry"/>
                </mxCell>
                <mxCell id="78961159f06e98e8-72" value="- type: String" style="text;html=1;strokeColor=none;fillColor=none;align=left;verticalAlign=top;spacingLeft=4;spacingRight=4;whiteSpace=wrap;overflow=hidden;rotatable=0;points=[[0,0.5],[1,0.5]];portConstraint=eastwest;" parent="78961159f06e98e8-69" vertex="1">
                    <mxGeometry y="78" width="210" height="26" as="geometry"/>
                </mxCell>
                <mxCell id="78961159f06e98e8-74" value="+ field: type" style="text;html=1;strokeColor=none;fillColor=none;align=left;verticalAlign=top;spacingLeft=4;spacingRight=4;whiteSpace=wrap;overflow=hidden;rotatable=0;points=[[0,0.5],[1,0.5]];portConstraint=eastwest;" parent="78961159f06e98e8-69" vertex="1">
                    <mxGeometry y="104" width="210" height="26" as="geometry"/>
                </mxCell>
                <mxCell id="78961159f06e98e8-75" value="+ field: type" style="text;html=1;strokeColor=none;fillColor=none;align=left;verticalAlign=top;spacingLeft=4;spacingRight=4;whiteSpace=wrap;overflow=hidden;rotatable=0;points=[[0,0.5],[1,0.5]];portConstraint=eastwest;" parent="78961159f06e98e8-69" vertex="1">
                    <mxGeometry y="130" width="210" height="26" as="geometry"/>
                </mxCell>
                <mxCell id="78961159f06e98e8-76" value="+ field: type" style="text;html=1;strokeColor=none;fillColor=none;align=left;verticalAlign=top;spacingLeft=4;spacingRight=4;whiteSpace=wrap;overflow=hidden;rotatable=0;points=[[0,0.5],[1,0.5]];portConstraint=eastwest;" parent="78961159f06e98e8-69" vertex="1">
                    <mxGeometry y="156" width="210" height="26" as="geometry"/>
                </mxCell>
                <mxCell id="78961159f06e98e8-77" value="" style="line;html=1;strokeWidth=1;fillColor=none;align=left;verticalAlign=middle;spacingTop=-1;spacingLeft=3;spacingRight=3;rotatable=0;labelPosition=right;points=[];portConstraint=eastwest;" parent="78961159f06e98e8-69" vertex="1">
                    <mxGeometry y="182" width="210" height="8" as="geometry"/>
                </mxCell>
                <mxCell id="78961159f06e98e8-78" value="+ login(): Void" style="text;html=1;strokeColor=none;fillColor=none;align=left;verticalAlign=top;spacingLeft=4;spacingRight=4;whiteSpace=wrap;overflow=hidden;rotatable=0;points=[[0,0.5],[1,0.5]];portConstraint=eastwest;" parent="78961159f06e98e8-69" vertex="1">
                    <mxGeometry y="190" width="210" height="26" as="geometry"/>
                </mxCell>
                <mxCell id="78961159f06e98e8-79" value="+ editCarInfo(): Void" style="text;html=1;strokeColor=none;fillColor=none;align=left;verticalAlign=top;spacingLeft=4;spacingRight=4;whiteSpace=wrap;overflow=hidden;rotatable=0;points=[[0,0.5],[1,0.5]];portConstraint=eastwest;" parent="78961159f06e98e8-69" vertex="1">
                    <mxGeometry y="216" width="210" height="26" as="geometry"/>
                </mxCell>
                <mxCell id="78961159f06e98e8-80" value="+ checkRentalHistory(): Void" style="text;html=1;strokeColor=none;fillColor=none;align=left;verticalAlign=top;spacingLeft=4;spacingRight=4;whiteSpace=wrap;overflow=hidden;rotatable=0;points=[[0,0.5],[1,0.5]];portConstraint=eastwest;" parent="78961159f06e98e8-69" vertex="1">
                    <mxGeometry y="242" width="210" height="26" as="geometry"/>
                </mxCell>
                <mxCell id="78961159f06e98e8-81" value="+ readBooking(): Void" style="text;html=1;strokeColor=none;fillColor=none;align=left;verticalAlign=top;spacingLeft=4;spacingRight=4;whiteSpace=wrap;overflow=hidden;rotatable=0;points=[[0,0.5],[1,0.5]];portConstraint=eastwest;" parent="78961159f06e98e8-69" vertex="1">
                    <mxGeometry y="268" width="210" height="26" as="geometry"/>
                </mxCell>
                <mxCell id="VywgzREQ6usy_nSy3DeH-14" value="+ approveRental(): Void" style="text;html=1;strokeColor=none;fillColor=none;align=left;verticalAlign=top;spacingLeft=4;spacingRight=4;whiteSpace=wrap;overflow=hidden;rotatable=0;points=[[0,0.5],[1,0.5]];portConstraint=eastwest;" parent="78961159f06e98e8-69" vertex="1">
                    <mxGeometry y="294" width="210" height="26" as="geometry"/>
                </mxCell>
                <mxCell id="VywgzREQ6usy_nSy3DeH-15" value="+ approveReturn(): Void" style="text;html=1;strokeColor=none;fillColor=none;align=left;verticalAlign=top;spacingLeft=4;spacingRight=4;whiteSpace=wrap;overflow=hidden;rotatable=0;points=[[0,0.5],[1,0.5]];portConstraint=eastwest;" parent="78961159f06e98e8-69" vertex="1">
                    <mxGeometry y="320" width="210" height="26" as="geometry"/>
                </mxCell>
                <mxCell id="VywgzREQ6usy_nSy3DeH-16" value="+ imposeFines(): Void" style="text;html=1;strokeColor=none;fillColor=none;align=left;verticalAlign=top;spacingLeft=4;spacingRight=4;whiteSpace=wrap;overflow=hidden;rotatable=0;points=[[0,0.5],[1,0.5]];portConstraint=eastwest;" parent="78961159f06e98e8-69" vertex="1">
                    <mxGeometry y="346" width="210" height="26" as="geometry"/>
                </mxCell>
                <mxCell id="VywgzREQ6usy_nSy3DeH-17" value="+ collectPayment(): Void" style="text;html=1;strokeColor=none;fillColor=none;align=left;verticalAlign=top;spacingLeft=4;spacingRight=4;whiteSpace=wrap;overflow=hidden;rotatable=0;points=[[0,0.5],[1,0.5]];portConstraint=eastwest;" parent="78961159f06e98e8-69" vertex="1">
                    <mxGeometry y="372" width="210" height="26" as="geometry"/>
                </mxCell>
                <mxCell id="VywgzREQ6usy_nSy3DeH-18" value="+ requestReports(): Void" style="text;html=1;strokeColor=none;fillColor=none;align=left;verticalAlign=top;spacingLeft=4;spacingRight=4;whiteSpace=wrap;overflow=hidden;rotatable=0;points=[[0,0.5],[1,0.5]];portConstraint=eastwest;" parent="78961159f06e98e8-69" vertex="1">
                    <mxGeometry y="398" width="210" height="26" as="geometry"/>
                </mxCell>
                <mxCell id="VywgzREQ6usy_nSy3DeH-6" style="edgeStyle=elbowEdgeStyle;html=1;labelBackgroundColor=none;startFill=0;startSize=8;endArrow=diamondThin;endFill=0;endSize=16;fontFamily=Verdana;fontSize=12;elbow=vertical;exitX=0;exitY=0.5;exitDx=0;exitDy=0;" parent="1" edge="1">
                    <mxGeometry relative="1" as="geometry">
                        <mxPoint x="430" y="241" as="sourcePoint"/>
                        <mxPoint x="250" y="241" as="targetPoint"/>
                    </mxGeometry>
                </mxCell>
                <mxCell id="78961159f06e98e8-124" style="edgeStyle=orthogonalEdgeStyle;html=1;labelBackgroundColor=none;startFill=0;startSize=8;endArrow=diamondThin;endFill=0;endSize=16;fontFamily=Verdana;fontSize=12;" parent="1" edge="1">
                    <mxGeometry relative="1" as="geometry">
                        <Array as="points">
                            <mxPoint x="368" y="510"/>
                            <mxPoint x="160" y="510"/>
                        </Array>
                        <mxPoint x="370" y="510" as="sourcePoint"/>
                        <mxPoint x="160" y="403" as="targetPoint"/>
                    </mxGeometry>
                </mxCell>
                <mxCell id="VywgzREQ6usy_nSy3DeH-7" style="edgeStyle=elbowEdgeStyle;html=1;labelBackgroundColor=none;startFill=0;startSize=8;endArrow=diamondThin;endFill=0;endSize=16;fontFamily=Verdana;fontSize=12;elbow=vertical;" parent="1" edge="1">
                    <mxGeometry relative="1" as="geometry">
                        <mxPoint x="720" y="240" as="sourcePoint"/>
                        <mxPoint x="590" y="240" as="targetPoint"/>
                        <Array as="points">
                            <mxPoint x="680" y="240"/>
                            <mxPoint x="660" y="250"/>
                        </Array>
                    </mxGeometry>
                </mxCell>
            </root>
        </mxGraphModel>
    </diagram>
</mxfile>